<svg xmlns="http://www.w3.org/2000/svg" width="400" height="405.41">
<g fill-rule="evenodd">
<style>
path { fill: #222; }
</style>
<rect width="100%" height="100%" fill="#fff"/>
<path d="M293.62 51.47c-1.64 2.08-1.69 7.84-.08 9.45l.85.84 2.87-.84c5.58-1.65 6.27.07 1.75 4.35-7.88 7.46-7.93 12-.21 18.19 1.87 1.5 5.62 4.89 8.33 7.53 7.23 7.04 7.56 6.94 7.48-2.03-.07-6.98-.22-7.36-2.86-7.36-1.34 0-2.84-1.23-6.08-4.96-1.86-2.14-1.56-2.88 3.14-7.66 4.74-4.82 4.79-4.95 4.79-11.05v-4.81l-1.36-1.36-1.36-1.36h-16.42l-.84 1.07m26.9-.67c-2.37.96-2.4 2.22-.51 25.8.67 8.34.68 8.35 8.87 7.76 6.42-.47 7.56-.3 8.9 1.28l1.02 1.22v11.8c0 12.42-.12 13.34-1.78 13.34-.86 0-4.7-4.26-7.42-8.22-2.3-3.36-2.99-4.56-3.37-5.98-2.19-7.96-5.9-8.38-6.16-.7-.22 6.45.25 8.33 3.02 11.99 2.46 3.25 2.45 3.24 5.5 7.76 7.01 10.44 13.35 23.15 16.61 33.35l1.85 5.67c.52 1.57.95 3.12.95 3.43 0 .67 1.65 2.3 2.34 2.3 1 0 1.06-3.17.86-55.73l-.2-53.94-.94-.77c-1.04-.83-27.55-1.16-29.54-.36M48.66 52.38c-5.2.2-5.58.28-6.3 1.16-.82 1.02-.98 1.88-.4 2.24.57.35 2.92 4.67 3.38 6.22.28.93.5 18.67.64 52.46.21 49.66.24 51.08.99 51.9l.77.86 1.14-1.1a6.62 6.62 0 0 0 1.53-2.7 139.28 139.28 0 0 1 7.24-22.02l1.56-3.6V96.17l-.01-41.62-1.1-1.03c-1.37-1.28-2.52-1.42-9.44-1.14m28.65-.07-10.1.1-.6 1.17c-.52 1-.89 16.95-.63 27.55.01.51.55 1.46 1.19 2.1l1.17 1.17h5.15c8.57 0 9.42 1.85 3.62 7.85-4.9 5.07-6.41 5.72-8.55 3.71-2.43-2.28-2.63-1.45-2.64 11.19-.03 15.9.5 16.14 8.69 3.86a34.47 34.47 0 0 1 2.19-3.02c.33-.35 1.05-1.23 1.6-1.97 3-4.02 7.3-9 11-12.77L93.58 89l.01-16.4c0-22.33 1.5-20.48-16.28-20.3m108.59 2.37c-.7.19-.98.9-.4.97 4.48.62 29.87 0 29.16-.72-.34-.34-27.56-.58-28.76-.25m-9.22 1.39c-2.16.19-4.44.61-5.08.94-.64.33-1.61.6-2.16.6-1.72 0-5.04.85-5.04 1.29 0 .68 7.46.15 8.3-.59.49-.42 2.06-.7 5.09-.9 5.3-.35 6.56-.7 4.88-1.36a4.86 4.86 0 0 0-1.6-.38l-4.4.4m40.14-.08c-1.07.68-.05.97 4.94 1.4 2.71.23 5.2.64 5.52.91.32.27 2.03.65 3.8.85 1.76.2 3.64.63 4.17.98.53.34 2.22.75 3.76.9 1.7.18 2.96.52 3.22.88.24.32 1.32.68 2.4.8 1.1.12 2.38.53 2.88.91a7.1 7.1 0 0 0 2.72.97c1 .15 1.92.52 2.03.82.12.3.92.66 1.79.8.87.15 1.84.54 2.17.87a5.8 5.8 0 0 0 2.09 1 8.3 8.3 0 0 1 2.45 1.18c.53.41 1.27.75 1.65.75.39 0 .91.25 1.16.56.26.3 1.05.79 1.75 1.07 1.7.68 8.35 4.41 9.02 5.06.29.28.77.51 1.07.51.3 0 1.07.45 1.73 1 .65.55 1.29 1 1.41 1 .44 0 3.68 2.21 6.12 4.18a6.67 6.67 0 0 0 1.5 1.02c.27 0 6.66 5.24 8.09 6.63.44.42 2.52 2.26 4.61 4.08 7.06 6.11 19.66 21.37 24.18 29.26l1.56 2.63c.53.88 1.27 2.23 1.63 3 .36.77.78 1.49.94 1.6.15.11.86 1.46 1.57 3a47.8 47.8 0 0 0 1.68 3.4c.22.33.68 1.23 1.02 2 .34.77 1.06 2.29 1.6 3.38.52 1.09.96 2.19.96 2.45 0 .26.26.68.57.94.31.26.7 1.23.85 2.15.15.93.6 2.09 1 2.59.39.5.83 1.79.98 2.87.15 1.08.5 2.05.8 2.16.31.13.65 1.18.81 2.53.16 1.28.6 2.87.99 3.53.4.7.8 2.45.93 4.2.15 1.83.45 3.15.79 3.4.36.26.7 2.01.98 5.15.27 3 .62 4.87.94 5.07 1.32.82 1.34 39.31.02 40.9-.62.75-1.44 8.33-1.06 9.81.45 1.8.96.17 1.46-4.6.25-2.38.6-4.42.76-4.53 1.54-1 1.56-40.22.03-42.16-.19-.24-.46-1.82-.61-3.5a35.05 35.05 0 0 0-.86-5.2 80.02 80.02 0 0 1-1.23-5.54c-.34-1.87-.8-3.5-1-3.63-.2-.12-.6-1.5-.9-3.07-.3-1.57-.84-3.15-1.2-3.5-.36-.36-.65-1.3-.65-2.08s-.34-1.99-.76-2.67a9.88 9.88 0 0 1-1.03-2.95c-.16-.94-.44-1.7-.63-1.7-.2 0-.55-.76-.8-1.69a19 19 0 0 0-1.19-3.1c-.4-.78-1.2-2.49-1.8-3.81a42.96 42.96 0 0 0-1.43-3 43.5 43.5 0 0 1-1.18-2.2 60.18 60.18 0 0 0-1.78-3.2 133.88 133.88 0 0 1-3.35-5.75c-.3-.58-.87-1.41-1.26-1.85a5.56 5.56 0 0 1-.97-1.7c-.15-.5-.45-.9-.66-.9-.21 0-.5-.31-.64-.7-.27-.73-2.3-3.76-3.32-4.95a51.8 51.8 0 0 1-1.3-1.63c-6.58-8.8-18.43-20.65-27.3-27.28-2.2-1.64-4.47-3.36-5.05-3.8a10 10 0 0 0-2.1-1.22c-.58-.22-1.05-.57-1.05-.78 0-.21-.4-.5-.9-.66a5.56 5.56 0 0 1-1.7-.97c-.44-.39-1.27-.95-1.85-1.26-1.03-.54-2.62-1.47-5.75-3.37a31.18 31.18 0 0 0-3-1.59c-.77-.33-1.67-.79-2-1-.33-.22-1.05-.59-1.6-.83a48 48 0 0 1-2.48-1.2 6.77 6.77 0 0 0-2.25-.76 3.5 3.5 0 0 1-1.72-.74 6.39 6.39 0 0 0-2.45-.97 4.61 4.61 0 0 1-2.09-.82c-.32-.32-1.53-.8-2.7-1.08-1.16-.28-2.22-.67-2.35-.87-.13-.2-1.48-.58-3-.83-1.52-.26-2.94-.69-3.16-.95-.22-.27-1.5-.69-2.86-.93-1.35-.23-2.99-.7-3.64-1.02-.65-.33-2.33-.7-3.74-.85-1.4-.15-2.92-.5-3.36-.78-.44-.28-2.96-.7-5.6-.93-5.73-.5-5.07-.5-5.79-.05m-56.21 3.7c-1.32.21-2.67.62-3 .9-.33.3-1.41.66-2.4.82-.99.16-2.52.6-3.4 1-.88.39-2.17.83-2.87.98-.7.15-1.47.51-1.72.8-.24.3-1.24.65-2.22.8-.98.15-2.03.52-2.34.82-.3.31-1.07.69-1.7.84-.63.15-1.78.6-2.55.98-.77.4-1.85.9-2.4 1.14-.55.24-1.27.61-1.6.83-.33.21-1.23.67-2 1-.77.34-2.12 1.06-3 1.6a37 37 0 0 1-3 1.64c-.77.36-1.54.9-1.72 1.21-.18.3-.53.56-.78.56s-1.1.42-1.88.94l-3.62 2.4c-4.2 2.77-9.35 6.6-13.18 9.78-2.38 1.98-15.04 14.63-16.9 16.89a295.3 295.3 0 0 0-6.11 7.79c-1.82 2.37-2.72 3.7-3.03 4.5-.2.5-.53.9-.73.9-.2 0-.56.54-.79 1.2-.23.66-.59 1.2-.8 1.2-.2 0-.66.72-1.01 1.6-.35.88-.81 1.6-1.02 1.6-.2 0-.5.4-.66.9a9.2 9.2 0 0 1-1.18 2.1c-.5.66-1.02 1.6-1.17 2.1-.15.5-.43.9-.61.9-.2 0-.46.53-.6 1.17a5.6 5.6 0 0 1-1.05 2.07 5.5 5.5 0 0 0-1.03 1.93c-.13.57-.47 1.3-.75 1.63a7.7 7.7 0 0 0-.95 2.28c-.25.93-.62 1.8-.83 1.92-.2.13-.58 1-.83 1.92a7.34 7.34 0 0 1-.97 2.28c-.3.33-.66 1.32-.82 2.2a5.8 5.8 0 0 1-.83 2.23c-.3.34-.73 1.6-.95 2.77a8.37 8.37 0 0 1-.94 2.77c-.29.35-.73 1.79-.98 3.2-.25 1.41-.63 2.67-.83 2.8-.2.13-.59 1.4-.85 2.83a30.4 30.4 0 0 1-1 4.03c-.3.8-.74 3.21-.98 5.38-.24 2.16-.6 4.12-.78 4.36-1.57 2-1.51 44.11.07 45.1.23.14.55 2.03.7 4.2.16 2.38.53 4.45.93 5.22.36.7.66 1.74.66 2.31 0 1.42.85 4.75 1.28 5.03.2.13.55 1.48.8 3 .24 1.53.68 3.05.98 3.4.3.34.72 1.6.94 2.78.23 1.18.6 2.27.83 2.41.24.14.6 1.05.82 2.02.22.96.64 2.02.93 2.35.3.34.66 1.24.82 2.01.16.77.63 1.96 1.04 2.65.42.68.76 1.51.76 1.84 0 .33.34 1.03.75 1.56.4.52.87 1.53 1.03 2.25.15.7.44 1.39.64 1.51.2.12.72.98 1.17 1.9.45.93 1.25 2.41 1.8 3.29.54.88 1.27 2.14 1.61 2.8.63 1.19 2.2 3.54 3 4.49.23.27.6.9.82 1.4.22.5.85 1.54 1.4 2.31.54.77 1.22 1.73 1.49 2.14 5.35 7.98 16.37 19.85 25.28 27.26 1.06.88 2.22 1.87 2.58 2.2.97.88 5.13 4.1 6.2 4.8.52.33 1.99 1.3 3.28 2.16a140.29 140.29 0 0 0 5.95 3.76 23 23 0 0 0 2.03 1.06c.68.32 1.47.85 1.75 1.2.28.34.73.62 1 .62.25 0 1.07.45 1.82 1s1.64 1 2 1c.35 0 1.25.45 2 1s1.6 1 1.91 1c.31 0 1.02.36 1.58.8.56.44 1.38.8 1.82.8.44 0 1.36.34 2.04.76.69.41 1.88.88 2.65 1.04.77.16 1.7.55 2.05.86.36.32 1.35.68 2.2.8a9.8 9.8 0 0 1 2.75.94c.66.39 2.1.83 3.18.99 1.1.16 2.17.54 2.4.85.24.31 1.52.67 2.95.82 1.4.14 2.75.48 3.02.75.5.5 4.88 1.39 6.85 1.39.63 0 1.44.27 1.81.61.49.44 2 .68 5.37.87 2.95.15 4.88.44 5.2.75 1.52 1.52 33.96 1.53 35.19 0 .3-.37 1.96-.61 5.43-.78 3.35-.17 5.13-.42 5.4-.76.22-.29 2.08-.73 4.15-.99 2.1-.25 4.03-.71 4.4-1.04.36-.32 1.87-.71 3.36-.87 1.7-.18 2.82-.5 3.03-.86.18-.33 1.3-.71 2.6-.89 1.25-.17 2.5-.59 2.77-.93.27-.34 1.42-.72 2.6-.84 1.16-.13 2.38-.5 2.7-.82.32-.32 1.17-.7 1.89-.86.71-.15 1.57-.5 1.9-.79a5 5 0 0 1 1.6-.78c.85-.23 4.35-1.92 11.53-5.57a7.19 7.19 0 0 0 1.67-1.05c.11-.17.83-.6 1.6-.96.77-.35 2.21-1.18 3.2-1.83.99-.66 2.21-1.38 2.71-1.6.5-.22 1.13-.6 1.4-.83.44-.38 1.98-1.41 3.87-2.58.36-.22.91-.63 1.24-.9.32-.28 2.38-1.96 4.58-3.75s4.3-3.54 4.67-3.9c.36-.36 1.53-1.37 2.58-2.25 2.5-2.08 7.71-7.3 10.75-10.76l3.4-3.87c.55-.62 1.4-1.63 1.87-2.25l2.6-3.33c.95-1.22 1.91-2.5 2.13-2.85a134.2 134.2 0 0 1 4.21-6.25c.24-.28.7-1.13 1.02-1.9.32-.76.75-1.39.95-1.39.2 0 .5-.4.65-.9.16-.48.59-1.34.96-1.9 2.06-3.03 2.79-4.3 3.03-5.3.15-.6.41-1.1.6-1.1.17 0 .53-.68.8-1.5.26-.82.74-1.8 1.05-2.15.31-.36.76-1.34.99-2.17.23-.83.64-1.74.93-2.03a5 5 0 0 0 .8-2.03 5.4 5.4 0 0 1 .86-2.17c.32-.36.7-1.35.82-2.2a5.4 5.4 0 0 1 .78-2.18c.3-.34.73-1.58.95-2.76.22-1.17.6-2.37.85-2.67.24-.3.69-1.83.99-3.4.3-1.6.72-3 .93-3.12.92-.57 1.55-7.62.68-7.62-.55 0-1.05 2.38-1.05 5.03 0 .72-.3 1.62-.67 1.98-.38.38-.82 1.75-1 3.1-.19 1.34-.59 2.72-.89 3.06a8.3 8.3 0 0 0-1 2.76 7.61 7.61 0 0 1-1 2.7c-.31.3-.69 1.27-.84 2.14-.14.87-.5 1.79-.8 2.03-.3.25-.67.99-.8 1.64-.15.65-.8 2.21-1.43 3.47a13.52 13.52 0 0 0-1.17 2.79c0 .28-.14.5-.32.5s-.56.68-.86 1.5c-.3.82-.87 1.93-1.28 2.45-.4.53-.74 1.18-.74 1.45s-.35.94-.77 1.48c-.43.54-.9 1.45-1.04 2.02a4.1 4.1 0 0 1-1.03 1.73c-.42.38-.76 1-.76 1.37 0 .37-.35 1-.79 1.4a4.2 4.2 0 0 0-1.04 1.5 4.74 4.74 0 0 1-.85 1.44 27.6 27.6 0 0 0-1.86 2.68c-.7 1.1-1.49 2.28-1.77 2.6-.28.32-1.57 2.02-2.87 3.78a85.85 85.85 0 0 1-3.7 4.68c-.72.81-2.13 2.43-3.1 3.6-3.67 4.34-11.67 12.03-16.74 16.1a70.48 70.48 0 0 1-3.9 3.12 52.24 52.24 0 0 0-2.56 2c-.33.27-.89.68-1.25.9-.68.41-2.51 1.68-5.47 3.77-.93.67-2.19 1.49-2.8 1.83l-2.7 1.6c-.88.53-2.32 1.33-3.2 1.78-.88.44-1.87 1-2.2 1.21-.33.23-1.05.59-1.6.8-.55.23-1.27.58-1.6.8-.33.21-1.23.66-2 1-.77.32-1.67.76-2 .97a34.2 34.2 0 0 1-6.2 2.64c-.66.15-1.47.5-1.8.8-.33.29-1.4.74-2.36 1a12 12 0 0 0-2.6 1c-.46.29-1.65.65-2.64.8-.99.16-2.07.53-2.4.82-.34.3-1.75.72-3.15.94-1.4.23-2.75.67-3 .98-.29.37-1.66.66-3.85.82-2.3.18-3.55.45-3.85.86-.32.42-1.46.65-3.8.77-4.95.26-7.71.66-8.03 1.16-.49.76-31.17.85-32.82.1-1.58-.72-3.35-.98-8.25-1.24-2.78-.14-3.87-.36-4.2-.82-.34-.46-1.47-.7-4.16-.87-2.6-.17-3.69-.39-3.69-.75 0-.52-.77-.74-4.09-1.2-1.03-.14-2.08-.5-2.33-.8-.25-.29-1.29-.65-2.31-.8a8.86 8.86 0 0 1-2.8-.85c-.52-.32-1.82-.85-2.9-1.17-1.08-.32-1.97-.73-1.97-.91 0-.19-.58-.45-1.3-.6-1.1-.2-11.7-5.13-13.5-6.27a39.1 39.1 0 0 0-2.2-1.2 60.16 60.16 0 0 1-3.2-1.77l-2.63-1.56c-1.26-.72-6.27-4.02-7.37-4.86a383.98 383.98 0 0 1-8.71-6.8l-4.29-3.62A110.86 110.86 0 0 1 92.56 298a42.84 42.84 0 0 0-2-2.2c-1.86-1.67-9.7-12-11.36-14.93a3.94 3.94 0 0 0-.91-1.2 6.4 6.4 0 0 1-1.12-1.6 96.44 96.44 0 0 0-1.76-3.07 71.62 71.62 0 0 1-1.99-3.66 38.04 38.04 0 0 0-1.96-3.41c-.5-.75-1.14-1.98-1.4-2.72a7.59 7.59 0 0 0-1.01-1.98 5.17 5.17 0 0 1-.83-1.83 5.15 5.15 0 0 0-.8-1.8 7.35 7.35 0 0 1-.98-2.03c-.25-.8-.81-2.13-1.25-2.99a7.5 7.5 0 0 1-.79-2.12c0-.31-.34-1.13-.75-1.81a10 10 0 0 1-1.03-3.14c-.14-1.04-.52-2.04-.84-2.22-.35-.2-.68-1.3-.84-2.82-.18-1.77-.46-2.61-.95-2.87-.53-.3-.73-1.08-.87-3.58-.13-2.23-.4-3.44-.85-3.95-.41-.45-.67-1.42-.67-2.5 0-2.25-.74-6.81-1.18-7.36-.72-.87-1.34-18.21-1-27.61.19-5.06.35-10.42.36-11.91.01-1.6.21-2.84.48-3 .58-.36 1.34-4.37 1.34-7.03 0-1.25.23-2.26.62-2.69.38-.41.75-1.96.95-3.94.2-1.89.58-3.55.93-3.94.33-.38.72-1.68.88-2.89.15-1.2.51-2.47.8-2.8.3-.33.73-1.56.98-2.73.24-1.17.69-2.38.99-2.67.3-.3.65-1.25.8-2.12.13-.87.5-1.79.81-2.05.31-.26.78-1.36 1.05-2.45.26-1.09.62-1.98.8-1.98.18 0 .62-.89.98-1.97.36-1.1.79-2.04.95-2.1.17-.07 1.06-1.66 2-3.53a97.57 97.57 0 0 1 2.67-5c.53-.88 1.2-2.05 1.48-2.6.28-.55.86-1.54 1.27-2.2l1.7-2.7c2.31-3.7 3.13-4.93 3.52-5.3.23-.22.91-1.12 1.51-2a45.94 45.94 0 0 1 3.83-4.8c.4-.44 2.05-2.4 3.67-4.36 4.4-5.3 7.27-8.27 11.14-11.5 1.9-1.59 3.65-3.1 3.87-3.36.22-.25 2.2-1.92 4.4-3.72a411.1 411.1 0 0 0 4.58-3.76c.33-.27.88-.68 1.24-.9.7-.43 3-1.93 3.98-2.58 2.86-1.92 3.86-2.55 4.57-2.87.46-.2 1.64-.89 2.63-1.52s3.48-2.02 5.53-3.07a30.34 30.34 0 0 0 3.92-2.24c.1-.18.52-.32.92-.32s1.16-.34 1.68-.76a9.71 9.71 0 0 1 2.66-1.26c.93-.28 1.69-.66 1.69-.84 0-.18.83-.54 1.83-.79 1.01-.25 1.93-.7 2.03-.97.11-.28 1.13-.64 2.27-.79a6.74 6.74 0 0 0 2.87-.98c.44-.4 1.69-.8 2.78-.92 1.14-.12 2.17-.48 2.44-.85.27-.36 1.05-.64 1.82-.65 1.53-.01 4.29-.59 4.68-.98.24-.24-.7-1.05-1.12-.96-.11.03-1.28.22-2.6.43m30.3.6c-2.57.5.36.71 8.76.65 10.73-.08 9.91-.03 9.14-.53-.58-.38-16.03-.48-17.9-.12m-8.9 1.18-3.9.37c-1.5.14-2.4.4-2.26.63.25.4 11.2.05 11.96-.4.97-.56-2.45-.92-5.8-.6m30.7 0c-1.78.51-.24.84 5.16 1.1 3.38.16 6.02.12 6.23-.09.54-.54-9.85-1.46-11.39-1.02m124.96.51c1.47 1.2 1.68 10.6.27 12.14-1.82 2-6.07 1.73-7.82-.48-.62-.79-.69-9.74-.08-10.87.9-1.68 5.89-2.2 7.63-.79M172 63.22c-.99.18-2.6.33-3.57.35-1.01.02-2.06.3-2.47.66-.38.35-1.48.72-2.43.83-2.84.31-3.53.53-3.53 1.1 0 .37-.8.6-2.62.74-1.45.12-2.92.47-3.3.8-.37.33-1.47.71-2.43.86-.97.15-2.2.62-2.76 1.05-.55.44-1.34.79-1.77.79-.42 0-1.8.46-3.05 1.02a125.8 125.8 0 0 0-6.87 3.22 55 55 0 0 1-2.4 1.2c-.77.36-1.49.79-1.6.96a6.3 6.3 0 0 1-1.6.98 27.9 27.9 0 0 0-4.73 2.7 10 10 0 0 1-1.67 1.05c-.97.47-5.16 3.08-7.46 4.65a70.08 70.08 0 0 0-6 4.8c-.46.45-1.18 1.1-1.6 1.42-8.42 6.81-11.71 10.15-19.96 20.2-5.04 6.15-6.86 8.72-8.85 12.5-.37.72-.8 1.3-.96 1.3-.16 0-.58.67-.95 1.5-.37.82-1.1 2.22-1.64 3.1-.53.88-1.28 2.23-1.67 3-.4.77-.81 1.49-.93 1.6-.44.39-3.18 6.07-3.18 6.58 0 .29-.26.74-.57 1-.32.26-.7 1.05-.85 1.75-.14.7-.59 1.81-.98 2.47a9.7 9.7 0 0 0-.98 2.46c-.15.7-.62 1.95-1.04 2.79a7.74 7.74 0 0 0-.78 2.9c0 .76-.3 1.72-.67 2.13-.38.42-.8 1.81-.96 3.16-.16 1.32-.56 2.71-.88 3.08-.35.4-.72 1.98-.88 3.8-.18 2.01-.47 3.2-.81 3.34-.36.13-.61 1.43-.79 4.07a28.9 28.9 0 0 1-.8 5.47c-1.53 4.4-1.68 39.29-.18 40.22.24.15.63 2.37.87 4.93.3 3.25.57 4.65.92 4.65.35 0 .6 1.09.8 3.42.17 2.16.5 3.64.87 4.01.32.33.73 1.74.9 3.15.18 1.41.62 2.98.97 3.48s.64 1.47.64 2.13c0 .67.34 1.85.75 2.62.4.76.88 2.02 1.04 2.79.16.77.64 1.96 1.05 2.65.42.68.76 1.51.76 1.84 0 .33.33 1.03.72 1.56.4.52.94 1.7 1.2 2.6.27.91.75 1.88 1.08 2.15.33.27.6.8.6 1.17 0 .37.27 1.03.6 1.45.33.43.96 1.5 1.4 2.38.44.88 1.25 2.32 1.79 3.2.54.88 1.25 2.15 1.57 2.83a6.3 6.3 0 0 0 1.22 1.75c.34.29.62.68.62.87 0 .3 1.92 3.3 5.08 7.95a87.4 87.4 0 0 0 5.9 7.11 21.1 21.1 0 0 1 1.91 2.27c.48.86 2.97 3.63 6.31 7 2.61 2.66 6 5.6 14.2 12.28 3.6 2.93 7.5 5.74 8 5.74.26 0 .8.36 1.2.8.4.44.95.8 1.23.8s.79.28 1.13.62c.34.33 1.2.88 1.93 1.22.72.34 2.03 1.05 2.91 1.58.88.54 2.23 1.25 3 1.59.77.33 1.67.79 2 1 .33.22 1.05.6 1.6.84l3 1.4a12 12 0 0 0 2.46.95c.24 0 .65.25.9.56.26.3.95.68 1.54.83.6.15 2 .7 3.13 1.24 1.12.53 2.47.97 2.98.97.5 0 1.24.28 1.62.63.39.35 1.72.77 2.97.94 1.25.17 2.43.55 2.6.84.2.31 1.54.66 3.22.84 1.58.17 3.17.58 3.53.9.8.73 7.41 1.36 7.8.74.26-.44-.88-.7-4.86-1.13-1.38-.14-2.64-.47-2.8-.73-.16-.25-1.44-.69-2.84-.97s-2.84-.68-3.2-.89c-.36-.2-1.73-.72-3.05-1.15-3.95-1.27-6.73-2.3-8-2.98a5.58 5.58 0 0 0-2.05-.64c-.47 0-1.06-.25-1.32-.56-.26-.32-1.36-.78-2.45-1.05-1.09-.26-1.98-.63-1.98-.81 0-.2-.72-.56-1.6-.82a6 6 0 0 1-2.26-1.22c-.36-.4-.96-.74-1.32-.74a5.1 5.1 0 0 1-2.02-1c-.75-.55-1.5-1-1.7-1-.18 0-.82-.34-1.42-.75l-4.62-3.1c-4.86-3.22-4.96-3.3-7.56-5.23a19.79 19.79 0 0 0-2.53-1.72c-2.42 0-21.3-19.2-27.67-28.14a125.55 125.55 0 0 1-3.5-5.03c-.22-.36-.63-.92-.9-1.25a25.39 25.39 0 0 1-2.9-4.31 6.02 6.02 0 0 0-1-1.53c-.33-.33-.6-.83-.6-1.11 0-.29-.33-.95-.74-1.48a9.73 9.73 0 0 1-1.23-2.45c-.27-.82-.64-1.5-.83-1.5-.19 0-.56-.68-.82-1.5a8 8 0 0 0-.98-2.1 5.31 5.31 0 0 1-.8-1.6c-.16-.55-.63-1.56-1.05-2.25a5.23 5.23 0 0 1-.75-1.8c0-.31-.36-1.22-.79-2.03-.43-.81-1-2.3-1.25-3.3s-.59-1.82-.76-1.82c-.16 0-.53-.86-.82-1.9a22.6 22.6 0 0 0-1.21-3.3 13.3 13.3 0 0 1-.97-3.37 8.77 8.77 0 0 0-.82-2.81 12.5 12.5 0 0 1-.94-3.53c-.2-1.48-.64-2.94-.95-3.26-.4-.4-.66-2.07-.86-5.47-.23-3.89-.44-5.1-1.04-5.86-1.2-1.54-1.21-34.26 0-35.8.57-.73.82-1.65.83-3.16.03-3.46.6-7.58 1.07-7.87.24-.15.64-1.7.88-3.45.24-1.74.68-3.45.97-3.8.29-.34.73-1.79.99-3.22a18.3 18.3 0 0 1 1.26-4.19 7.6 7.6 0 0 0 .81-2.1c0-.28.36-1.19.8-2 .44-.83.8-1.75.8-2.06 0-.31.47-1.58 1.05-2.81a506.6 506.6 0 0 0 1.78-3.84c2.61-5.73 3.62-7.78 3.93-7.97.2-.12.47-.85.61-1.63.15-.77.44-1.4.65-1.4.21 0 .67-.72 1.03-1.6.35-.88.79-1.6.97-1.6.18 0 .56-.63.83-1.4.28-.77.66-1.4.84-1.4.18 0 .5-.47.73-1.05.22-.57.76-1.52 1.21-2.1 2.05-2.64 4.77-6.51 4.77-6.77 0-.16.36-.51.8-.79.44-.27.8-.7.8-.96s.27-.75.6-1.1c.33-.34 1.63-1.88 2.9-3.4a107.4 107.4 0 0 1 3.9-4.45 4537 4537 0 0 1 3.86-4.03c3.84-4 10.86-10.09 16.14-13.97.44-.32 1.34-1 2-1.52a12.7 12.7 0 0 1 1.8-1.2c.33-.14 1.41-.9 2.4-1.67.99-.77 2.37-1.66 3.06-1.99.7-.32 1.33-.72 1.4-.89.16-.37 1.41-1.04 9.14-4.9 8.72-4.36 12.57-6.05 16-7.02a5.1 5.1 0 0 0 1.6-.8 9.36 9.36 0 0 1 2.9-.98c1.27-.26 2.3-.6 2.3-.77 0-.38 3.66-1.24 5.3-1.24a3.3 3.3 0 0 0 1.93-.63c.45-.4 1.94-.75 4.15-.95 3.59-.32 4.08-.48 3.64-1.2-.3-.46-.42-.46-3.02 0m53.21-.03c-.95.6-.3.83 3.39 1.21 1.95.2 3.78.61 4.15.93.36.3 1.72.68 3.04.83 1.3.15 2.93.54 3.6.87 1.06.53 2.12.86 5.15 1.57.4.1.95.33 1.2.53s1.18.6 2.06.88c.88.27 1.95.75 2.39 1.05.43.3 1.05.54 1.37.54.97 0 15.7 7.23 18.84 9.24.99.64 2.39 1.43 3.1 1.76.71.34 1.3.78 1.3.98 0 .2.33.47.74.6.4.13 1.8 1.04 3.1 2.01l3.89 2.9c.84.6 1.82 1.42 2.19 1.81.36.38.82.7 1.02.7 1.49 0 17.81 15.88 21.75 21.16.39.52 1.12 1.35 1.61 1.84.5.5.9 1.04.9 1.22 0 .18.33.7.74 1.15.41.46 1.8 2.36 3.08 4.23l3.6 5.23c.71 1 1.58 2.35 1.95 3 .36.64 1.1 1.89 1.63 2.77a34.5 34.5 0 0 1 1.42 2.6c.26.55.63 1.27.83 1.6.2.33.64 1.23.97 2 .33.77.78 1.67 1 2 .22.33.52.94.65 1.35.14.42.68 1.56 1.2 2.53.5.97.93 1.98.93 2.24 0 .26.3 1.02.64 1.68.35.66.91 2.1 1.24 3.2.33 1.1.74 2.18.92 2.4.48.61 2.71 7.4 3.02 9.2.16.88.51 1.87.8 2.2.27.33.72 2.04.98 3.8.27 1.76.68 3.32.92 3.47.24.15.61 2.26.83 4.7.56 6.05 1.23 5.74.94-.43-.17-3.77-.36-4.95-.83-5.2-.42-.25-.7-1.33-.89-3.57-.15-1.77-.51-3.46-.8-3.74-.28-.29-.64-1.64-.8-3-.15-1.37-.53-2.74-.84-3.05-.31-.3-.73-1.56-.93-2.77a9.69 9.69 0 0 0-.98-3.1 3.44 3.44 0 0 1-.62-1.5c0-.34-.45-1.51-1-2.61a14.6 14.6 0 0 1-1-2.4 18.2 18.2 0 0 0-1.21-2.79 14.14 14.14 0 0 1-1.19-2.9c0-.28-.17-.51-.37-.51-.2 0-.59-.67-.86-1.5a9.73 9.73 0 0 0-1.23-2.45 3.47 3.47 0 0 1-.74-1.47c0-.29-.26-.78-.57-1.1a8.7 8.7 0 0 1-1.21-1.92 40.45 40.45 0 0 0-1.62-2.96c-.53-.88-1.25-2.09-1.59-2.69-.34-.6-1.07-1.77-1.62-2.6a45.5 45.5 0 0 0-3.09-4.41 8.38 8.38 0 0 1-1.1-1.66c-.01-.13-.78-1.1-1.7-2.15a79.12 79.12 0 0 1-2.5-2.93c-3.51-4.5-8.73-10.22-11.83-12.96a2033.6 2033.6 0 0 1-4.56-4.04 99.18 99.18 0 0 0-2.54-2.2 98.78 98.78 0 0 1-2.6-2.26 44.05 44.05 0 0 0-3.87-3 30.79 30.79 0 0 1-2.4-1.74 5.93 5.93 0 0 0-1.18-.75c-.53-.29-1.16-.68-1.4-.87-1.07-.9-4.06-2.73-4.46-2.73-.24 0-.75-.36-1.14-.79a4.12 4.12 0 0 0-1.86-1.03c-.64-.14-1.16-.41-1.16-.6 0-.2-.76-.72-1.7-1.17a235 235 0 0 1-5.83-3.01 42.35 42.35 0 0 0-5.7-2.62c-.86-.23-1.57-.59-1.57-.79 0-.2-.67-.48-1.5-.62a7.53 7.53 0 0 1-2.57-1.01 8.87 8.87 0 0 0-3.3-1.02c-1.37-.16-2.23-.45-2.23-.76 0-.59-1.26-.98-3.17-.98a3.6 3.6 0 0 1-2.06-.64c-.38-.34-1.77-.77-3.09-.96-1.32-.18-2.82-.6-3.34-.93-.52-.33-2.29-.71-3.94-.86a37.7 37.7 0 0 1-3.6-.43c-.33-.1-.87 0-1.19.2M80.15 64.92c.9.65 1.37 4.94.68 6.21-.74 1.4-2.52 1.15-3.78-.5-2.37-3.1.2-7.84 3.1-5.71M196.9 66.1c.35 1.07 6.3.9 6.3-.19 0-.17-1.45-.31-3.23-.31-2.41 0-3.2.13-3.07.5m-14.47 1.1c-3.09.15-4.21.35-4.35.76-.16.47.46.52 3.77.3 8.7-.59 10.96-.78 10.81-.93-.27-.27-5.97-.35-10.23-.14m25.57.01c-1.2.38-1.62.32 5.8.81 6.13.4 8.94.24 7.7-.46-.84-.47-12.2-.76-13.5-.35m-35.72 1.58c-2.23.15-3.64.43-3.84.76-.18.29-1.53.67-3.01.86-1.48.18-3 .6-3.36.92-.37.32-1.7.7-2.97.86-1.26.15-2.53.5-2.8.76a9.1 9.1 0 0 1-2.7 1.02c-1.21.3-2.47.77-2.8 1.05-.33.28-1.35.71-2.26.96-.91.24-1.76.7-1.89 1.03-.12.33-.64.6-1.14.6-.5 0-1.36.27-1.91.59-.55.32-1.27.7-1.6.84-2.93 1.3-5.9 2.69-6.4 3-.33.2-1.28.66-2.1 1.01-.82.36-1.5.8-1.5.98 0 .18-.4.45-.9.6a9 9 0 0 0-1.9.98l-4.5 3a38.09 38.09 0 0 0-3.95 2.86c-.25.3-.63.54-.84.54-.22 0-.78.36-1.25.79-.47.43-2.03 1.74-3.47 2.9-7.66 6.19-12.24 10.64-17.66 17.14-7.67 9.2-12.39 15.96-15.52 22.25-.9 1.8-1.8 3.4-2.02 3.53-.21.13-.39.56-.39.96 0 .4-.34 1.16-.76 1.69a8.95 8.95 0 0 0-1.22 2.65c-.25.93-.6 1.69-.77 1.69-.18 0-.55.77-.83 1.7a8.21 8.21 0 0 1-1.02 2.3 5.45 5.45 0 0 0-.8 2 8.18 8.18 0 0 1-.82 2.26c-.3.48-.76 1.74-1.02 2.8a18.3 18.3 0 0 1-.97 2.94 17.4 17.4 0 0 0-.97 3.3 18 18 0 0 1-1.04 3.41c-.3.62-.68 2.47-.83 4.11-.15 1.64-.45 3.1-.68 3.25-.53.34-1 3.78-1.04 7.6-.02 2.31-.2 3.24-.7 3.74-1.2 1.2-1.27 31.39-.08 31.39.22 0 .36-5.72.35-14.1-.01-7.76-.02-14.58-.01-15.17 0-.6.26-1.32.57-1.63.6-.6 1.44-6.3 1.44-9.8 0-1.6.14-2.1.6-2.1.33 0 .6-.1.6-.22 0-1.38 1.02-6.14 1.46-6.8.3-.49.68-1.85.81-3.03.14-1.18.56-2.55.94-3.05.39-.49.83-1.75.98-2.8.15-1.04.54-2.2.86-2.55.32-.36.7-1.35.83-2.2.13-.85.55-1.95.94-2.45.38-.49.8-1.5.94-2.26.15-.75.52-1.57.83-1.83.3-.25.68-1.04.84-1.74.15-.7.61-1.7 1.02-2.22.41-.53.75-1.18.75-1.45s.35-.94.78-1.48c.42-.54.89-1.45 1.03-2.02a4.1 4.1 0 0 1 1.03-1.73c.42-.38.76-.88.76-1.11 0-.23.42-1.06.94-1.84l7.15-10.73a33.28 33.28 0 0 1 2.3-3.08c.45-.48.81-1.03.81-1.24 0-.2.36-.6.8-.88.44-.27.8-.7.8-.94 0-.58 15.72-16.4 17.73-17.85a30.1 30.1 0 0 0 2.2-1.72 18.5 18.5 0 0 1 1.83-1.4 652.93 652.93 0 0 1 14.26-9.64 6.13 6.13 0 0 1 1.89-.94c.25 0 .78-.34 1.17-.75.4-.4 1.4-.96 2.22-1.23.82-.26 1.5-.63 1.5-.82 0-.19.68-.55 1.5-.82a7.6 7.6 0 0 0 2.13-1.03c.34-.3 1.2-.65 1.89-.8.7-.13 1.46-.49 1.71-.79.25-.3 1.1-.66 1.91-.8a9.5 9.5 0 0 0 2.7-1c.7-.42 1.6-.76 2.02-.76.42 0 1.45-.35 2.29-.77.83-.43 2.4-.97 3.5-1.2 1.08-.24 2.37-.68 2.86-.98.49-.3 1.87-.68 3.07-.83 1.2-.15 2.64-.53 3.2-.86.56-.32 2.72-.81 4.79-1.08 6.22-.82 5.36-1.55-1.3-1.1m50.24.16c.18.54 2.76.99 5.9 1.03 1.65.02 2.38.22 2.86.79.4.47 1.45.86 2.79 1.03 1.18.16 2.52.52 2.98.82.46.29 1.88.72 3.17.96a8.8 8.8 0 0 1 2.96.98c.34.3 1.35.68 2.23.83.88.16 1.9.56 2.29.9a6.8 6.8 0 0 0 2.58.97c1.05.2 2.04.61 2.22.92.17.3 1.02.68 1.89.83.86.14 1.78.51 2.04.82.25.3 1.07.67 1.83.82.75.14 1.5.48 1.66.76a5 5 0 0 0 1.69 1.18c1.68.8 4.16 2.18 5.8 3.2 2.5 1.58 7.67 5.06 9.2 6.2a18.9 18.9 0 0 0 2.2 1.48c.33.15 1.53 1.05 2.66 2 1.14.96 2.2 1.74 2.36 1.74.4 0 .87.44 9.4 8.87 9.06 8.94 12.04 12.5 17.67 21.07a51.32 51.32 0 0 0 1.85 2.7c.2.24.67.96 1.03 1.6l1.63 2.76c.54.88 1.27 2.23 1.63 3 .36.77.88 1.67 1.16 2 .28.33.73 1.28.99 2.1.26.82.63 1.5.82 1.5.18 0 .63.9 1 2 .36 1.1.82 2.09 1.02 2.21.2.12.56.98.8 1.9.25.93.69 1.96.97 2.29a6 6 0 0 1 .8 2.2c.15.88.53 1.88.84 2.23.31.34.74 1.56.96 2.7.21 1.13.64 2.47.95 2.97.31.5.67 1.77.8 2.83.14 1.07.5 2.42.81 3 .31.59.77 2.4 1.02 4.04.25 1.64.64 3.2.87 3.48.23.27.59 2.34.8 4.58.66 7.04 1.84 6.98 1.45-.08-.13-2.43-.44-4.32-.79-4.86-.32-.5-.69-2.12-.83-3.63-.13-1.5-.52-3.27-.85-3.93a18.2 18.2 0 0 1-1.06-3.6c-.26-1.31-.8-3.04-1.22-3.84-.4-.8-.74-1.83-.74-2.28 0-.45-.34-1.45-.75-2.22-.4-.76-.88-2.02-1.04-2.79a5.68 5.68 0 0 0-.8-2 4.95 4.95 0 0 1-.79-1.6c-.5-1.82-6.85-14.87-8.13-16.7a94.4 94.4 0 0 1-1.88-2.9 61.5 61.5 0 0 0-1.7-2.6c-.17-.23-1.03-1.5-1.9-2.8a16.21 16.21 0 0 0-2.1-2.72c-.28-.18-.51-.5-.51-.74 0-1.27-15.2-17.77-19.84-21.54a236.6 236.6 0 0 0-10.55-8.2c-3.62-2.56-4.87-3.4-5.07-3.4-.12 0-.78-.4-1.48-.9-1.47-1.05-3.1-2-5.06-2.92a6.1 6.1 0 0 1-1.6-.98 5.47 5.47 0 0 0-1.9-.77c-.94-.26-1.7-.63-1.7-.83 0-.2-.76-.6-1.7-.87a5.84 5.84 0 0 1-2.1-.98 5.47 5.47 0 0 0-2.1-.94c-.94-.24-1.7-.61-1.7-.83 0-.2-.24-.38-.53-.38-.3 0-1.4-.44-2.47-.98a19.66 19.66 0 0 0-3.96-1.42c-1.1-.23-2.12-.6-2.25-.81-.13-.21-1.3-.6-2.61-.85-1.31-.25-2.67-.7-3.03-1.02-.36-.3-1.95-.7-3.53-.87-1.59-.17-3-.5-3.16-.75-.48-.78-9.4-1.53-9.15-.76M187.6 81.5c-4.51.12-5.6.33-5.6 1.07 0 .44-.97.59-4.38.7-3.48.1-4.5.27-4.9.79-.37.46-1.39.71-3.49.85-1.96.13-3.12.4-3.4.78-.24.32-1.4.71-2.6.87-1.19.16-2.6.63-3.15 1.06-.54.43-1.43.78-1.96.78s-2 .46-3.25 1.03c-5.45 2.47-6.7 3.06-7.27 3.4-.33.21-1.05.57-1.6.82-.55.24-1.27.6-1.6.8-.33.2-1.34.7-2.26 1.12-.9.42-1.76.95-1.9 1.17-.14.22-.79.52-1.44.66-.66.14-1.33.5-1.5.77-.16.28-.77.76-1.35 1.07-3.46 1.85-4.35 2.42-4.35 2.77a.4.4 0 0 1-.41.39c-.44 0-5.16 3.51-6.67 4.95-.5.47-1.38 1.21-1.98 1.65-1.54 1.13-12.47 12.03-14.24 14.2-.81.99-2.47 3.06-3.7 4.6a214.27 214.27 0 0 1-3 3.73c-.44.52-.8 1.13-.8 1.37 0 .24-.27.72-.61 1.07a19.4 19.4 0 0 0-2.95 4.72 5.7 5.7 0 0 1-1.08 1.75c-.3.25-.56.79-.56 1.19 0 .4-.24.87-.52 1.05-.3.18-.77.95-1.07 1.72-.3.77-.76 1.67-1.03 2a8.4 8.4 0 0 0-.96 2.1c-.27.82-.64 1.5-.83 1.5-.2 0-.58.76-.84 1.7a8.51 8.51 0 0 1-.98 2.3 7.58 7.58 0 0 0-.92 2.2c-.24.88-.8 2.31-1.24 3.19a7.58 7.58 0 0 0-.81 2.76c0 .65-.26 1.47-.58 1.82-.31.35-.76 1.8-.98 3.2-.23 1.42-.63 2.7-.9 2.86-.25.16-.58 1.77-.73 3.63-.15 1.91-.53 3.77-.9 4.34-.73 1.17-1.35 10.64-.75 11.57.4.6.45.3 1.2-6.93.21-2.18.56-4.07.76-4.2.2-.13.6-1.77.88-3.64.29-1.87.76-3.77 1.06-4.23.3-.45.65-1.71.79-2.8.14-1.08.58-2.51.97-3.17.4-.66.84-1.92 1-2.8.15-.88.52-1.87.8-2.2.3-.34.7-1.39.92-2.34.21-.94.65-2.02.97-2.39.32-.37.7-1.29.84-2.04.14-.76.5-1.66.8-2 .3-.35.77-1.3 1.03-2.13.27-.82.64-1.5.84-1.5.19 0 .56-.72.83-1.6.26-.88.63-1.6.82-1.6.18 0 .63-.72.98-1.6.35-.88.78-1.6.95-1.6.16 0 .54-.58.83-1.28.3-.7.78-1.56 1.09-1.9.3-.34 1.25-1.7 2.11-3.02a46.74 46.74 0 0 1 3.57-5.07c.33-.37.96-1.16 1.4-1.74.44-.59 1.16-1.49 1.6-2l2.77-3.26c3.3-3.9 8.99-9.31 14.24-13.56 6.24-5.05 9.36-7.25 14.19-10a6.5 6.5 0 0 0 1.4-.98c.11-.16 1.64-.98 3.4-1.82 1.76-.84 3.26-1.67 3.33-1.84.07-.17.88-.52 1.8-.76a7.26 7.26 0 0 0 2.27-.97 5.4 5.4 0 0 1 2.09-.8c.81-.16 1.86-.6 2.31-1 .45-.4 1.48-.84 2.27-.99.8-.15 1.83-.5 2.29-.8.46-.28 1.83-.74 3.04-1.02 1.21-.27 2.38-.64 2.6-.81.22-.18 1.66-.6 3.19-.96s2.88-.81 3.01-1.02c.13-.2 2.02-.57 4.21-.81 2.2-.25 5.25-.82 6.79-1.29 3.77-1.13 28.7-1.25 31.8-.15 2.46.87 3.43.4 1.86-.9-.52-.43-20.42-.8-29.86-.55m31.4 2.1c-.14.22-.01.4.28.4 1.76 0 7.76.94 7.95 1.25.12.2 1.44.61 2.92.92 1.48.31 2.91.74 3.17.95.27.2 1.42.6 2.57.86 1.15.27 2.76.84 3.58 1.26.83.42 1.9.76 2.39.76.48 0 1.13.25 1.43.55.3.3.99.68 1.53.84.54.16 1.88.7 2.98 1.21l3 1.36c.55.24 1.27.6 1.6.78.33.2 1.77.94 3.2 1.66 3.27 1.63 7.52 4.16 8.64 5.13.24.21 1 .68 1.7 1.04s1.26.8 1.26.98c0 .17.46.53 1.03.8 3.17 1.43 15.54 12.54 20.34 18.25a28.6 28.6 0 0 0 2.9 3.12c.29.18.53.57.53.88 0 .3.28.72.62.9.34.2.93.82 1.3 1.39 2.01 3.06 3.9 5.78 4.37 6.31.97 1.1 2.9 4.2 2.9 4.68 0 .26.26.62.57.8.3.18.83 1 1.18 1.82.34.82.8 1.5 1 1.5.22 0 .51.53.66 1.18.14.65.58 1.6.98 2.1s.85 1.52 1 2.25c.17.73.55 1.42.86 1.54.31.12.68.93.82 1.8.14.87.52 1.85.84 2.17.33.33.76 1.35.97 2.27.2.92.62 1.95.91 2.28.3.34.67 1.42.83 2.4.16 1 .63 2.43 1.04 3.2.41.77.75 1.84.75 2.38 0 .54.34 1.7.76 2.6.42.9.98 3.16 1.26 5.03s.72 3.76.99 4.2c.26.44.7 3.5.96 6.8.27 3.29.6 6.08.76 6.2 1.61 1.2 1.7 16.4.1 16.4-.25 0-1.08 7.8-1.32 12.37-.1 1.82.56 2.65 1.07 1.35.3-.73.61-6.08.62-10.2 0-1.47.2-2.47.6-2.86.5-.5.6-2.05.6-8.83 0-7.05-.09-8.23-.6-8.23-.56 0-.9-3.15-.68-6.2.2-2.67-.46-7.04-1.18-7.86-.5-.6-.7-1.24-.55-1.92.26-1.25-.43-5.67-.94-6-.2-.12-.5-1.12-.65-2.22-.15-1.1-.6-2.72-1-3.6-.4-.88-.94-2.54-1.2-3.7-.26-1.16-.62-2.1-.8-2.1-.16 0-.5-.81-.76-1.8-.25-.99-.8-2.38-1.24-3.1a5.4 5.4 0 0 1-.8-1.95c0-.35-.34-1.07-.75-1.6a6.64 6.64 0 0 1-1.03-2.25c-.15-.7-.44-1.39-.64-1.51-.2-.12-.72-.98-1.16-1.9a35.06 35.06 0 0 0-1.97-3.69c-.26-.44-.83-1.56-1.28-2.5-.44-.94-.98-1.7-1.19-1.7-.2 0-.38-.25-.38-.55 0-.3-.5-1.19-1.1-1.98-.6-.79-2-2.64-3.1-4.12a62.72 62.72 0 0 0-4.3-5.4c-.38-.4-.7-.88-.7-1.04 0-.54-10.78-11.46-13.73-13.91-1.06-.88-2.33-1.96-2.83-2.4a39.2 39.2 0 0 0-2.25-1.8 58.7 58.7 0 0 1-2.62-2.1c-.7-.6-1.48-1.1-1.72-1.1-.25 0-.45-.18-.45-.4 0-.21-.58-.63-1.3-.93a5.79 5.79 0 0 1-1.85-1.2c-.3-.37-.77-.67-1.05-.67-.27 0-.92-.34-1.45-.75a7.32 7.32 0 0 0-1.95-1.05 4.7 4.7 0 0 1-1.72-1.05c-.39-.41-1.04-.75-1.43-.75-.4 0-1.04-.35-1.43-.78a4.06 4.06 0 0 0-1.83-1.02 3.39 3.39 0 0 1-1.61-.83c-.26-.31-.68-.57-.93-.57s-1.53-.54-2.85-1.2a13.57 13.57 0 0 0-2.97-1.2 2.3 2.3 0 0 1-1.23-.6 6.67 6.67 0 0 0-2.55-.95 6.7 6.7 0 0 1-2.57-.97c-.37-.35-1.67-.75-2.88-.9-1.21-.15-2.41-.54-2.67-.86-.31-.4-1.55-.67-3.7-.81-2.19-.15-3.23-.38-3.23-.72 0-.96-7.63-1.5-8.2-.59m-28.48 16.28c-4.76.92 11.96 1.54 17.88.66l1.8-.27-1.6-.31c-1.64-.32-16.5-.39-18.08-.08m-11.04 1.6c-1.37.35-.42 1.12 1.36 1.09 3.2-.06 7.17-.63 6.94-1-.23-.37-6.94-.44-8.3-.09m32.52.03c0 .38 1.14.58 6.4 1.13 1.43.15 2.71.44 2.85.65.25.4 5.98 1.62 6.26 1.34.08-.1.49.17.9.58.4.4 1.6.86 2.66 1.02 1.06.15 2.36.62 2.88 1.03.53.4 1.32.74 1.76.74.44 0 1.36.34 2.04.76.69.41 1.82.88 2.52 1.02.7.15 1.48.53 1.74.83.26.31 1.1.69 1.86.83.77.14 1.49.5 1.6.8.12.3.91.76 1.77 1.02s1.56.62 1.56.8c0 .2.72.63 1.6.99.88.35 1.6.78 1.6.95 0 .18.5.52 1.1.77 1.5.6 2.89 1.64 10.08 7.55 7.9 6.5 9.97 8.62 15.53 15.99l1.39 1.8c2.5 3.2 3.1 4.03 3.1 4.32 0 .17.25.56.55.86.3.3.85 1.08 1.23 1.73.37.65 1.11 1.9 1.64 2.78a64.1 64.1 0 0 1 1.79 3.2c.45.88 1.08 2.05 1.4 2.6.32.55.58 1.3.58 1.67 0 .37.3.96.66 1.32.35.35.81 1.4 1.02 2.32.2.92.62 1.95.9 2.28.3.34.74 1.57.99 2.74.24 1.17.71 2.4 1.04 2.73.33.33.6 1.17.6 1.87 0 1.54.73 4.27 1.13 4.27.16 0 .5 1.75.76 3.9s.77 4.51 1.15 5.26c1.03 2.05 1.01 28.06-.02 30.1-.37.74-.87 2.96-1.1 4.94-.24 1.98-.69 3.89-1 4.25-.3.35-.65 1.61-.78 2.8a10.57 10.57 0 0 1-.94 3.35 9.92 9.92 0 0 0-.97 3.06c-.15 1.03-.51 1.96-.8 2.08-.3.11-.68.98-.84 1.93a7.08 7.08 0 0 1-1.01 2.65c-.4.5-.84 1.45-.98 2.1-.14.64-.42 1.27-.62 1.4-.2.11-.72.97-1.17 1.9-.45.92-1.26 2.4-1.8 3.28-.54.88-1.21 2.05-1.5 2.6-.6 1.2-.78 1.44-5.76 8.2-4.35 5.9-3.89 5.34-8.05 9.6-3.24 3.31-9.27 8.6-11.73 10.25a29.9 29.9 0 0 0-1.98 1.46c-1.89 1.6-3.77 2.89-4.26 2.89a.9.9 0 0 0-.77.55c-.11.3-.92.87-1.78 1.26-.87.4-1.58.86-1.58 1.03 0 .18-.7.52-1.56.75-.86.23-1.65.67-1.77.98-.12.3-.75.67-1.41.82-.66.14-1.57.58-2.03.98a5.7 5.7 0 0 1-2.39.98c-.85.13-1.65.5-1.76.8-.12.3-.9.68-1.75.83a7.7 7.7 0 0 0-2.33.79c-.44.28-1.52.64-2.4.8-.88.15-2.23.6-3 1-.77.38-2.47.83-3.78.98-1.31.15-2.71.57-3.1.93-.53.47-2.02.75-5.42 1-3.32.25-4.83.53-5.14.94-.64.83-21.57.87-22.53.03-.37-.32-2.58-.73-5.42-1.01-2.63-.26-4.88-.63-5-.81-.33-.53-3.23-1.23-5.09-1.23-1.09 0-1.8-.21-2.02-.6-.2-.36-1.32-.78-2.63-.99-1.26-.2-2.56-.64-2.9-.98a4.81 4.81 0 0 0-2.08-.87 6.71 6.71 0 0 1-2.44-1.02 3.66 3.66 0 0 0-1.85-.74c-.5 0-1.32-.33-1.85-.75a7.43 7.43 0 0 0-1.95-1.05 7.43 7.43 0 0 1-1.95-1.06 3.62 3.62 0 0 0-1.4-.75c-.38 0-1.43-.64-4.65-2.8l-1.65-1.1c-2.5-1.64-3.37-2.3-3.67-2.78-.18-.28-.5-.51-.72-.51-.22 0-1.51-.9-2.88-2-1.36-1.1-2.91-2.32-3.44-2.7a84.18 84.18 0 0 1-5.09-4.9c-5.49-5.6-5.41-5.52-7.08-7.72a64.34 64.34 0 0 0-1.96-2.5 30.6 30.6 0 0 1-1.2-1.47l-1.89-2.45c-.65-.84-1.3-1.86-1.42-2.26-.13-.4-.5-.83-.81-.95-.33-.12-.59-.56-.59-.97 0-.42-.35-1.08-.78-1.47a5.68 5.68 0 0 1-1.24-2.06c-.24-.74-.6-1.35-.78-1.35-.19 0-.54-.62-.79-1.37a4.97 4.97 0 0 0-1.02-1.84 3.81 3.81 0 0 1-.83-1.85 4.53 4.53 0 0 0-.86-1.98 5.83 5.83 0 0 1-.97-2.27 6.62 6.62 0 0 0-.91-2.28 6.2 6.2 0 0 1-.82-2.41 10.1 10.1 0 0 0-1.04-3.05 5.35 5.35 0 0 1-.76-2.24c0-1.3-.78-3.51-1.24-3.51-.2 0-.36-.69-.36-1.53 0-2.47-.8-6.23-1.44-6.73-1.27-.98-1.14-32.09.14-32.88.23-.14.64-1.8.9-3.66.26-1.87.74-3.9 1.07-4.52.33-.61.75-2.19.93-3.5.19-1.3.6-2.64.92-2.96.32-.32.7-1.38.85-2.37.15-.98.53-2 .85-2.27.32-.27.7-1.2.84-2.06a4.8 4.8 0 0 1 .83-2.15 5.8 5.8 0 0 0 .99-2.07 8.3 8.3 0 0 1 1.16-2.45 3.5 3.5 0 0 0 .76-1.69c0-.4.34-1.05.77-1.44.42-.4.89-1.2 1.03-1.8a4.2 4.2 0 0 1 1.04-1.75c.42-.38.76-.87.76-1.07 0-.21.4-.9.9-1.51.5-.63 1.35-1.79 1.9-2.59 1.07-1.55 1.19-1.7 4.6-6 5.61-7.09 8.11-9.62 14.2-14.39 1.65-1.3 3.27-2.59 3.6-2.88.88-.77 2.84-2.25 4.16-3.15l2.2-1.48a26.9 26.9 0 0 1 2.74-1.52c.94-.45 1.7-.96 1.7-1.14 0-.17.71-.55 1.58-.83.87-.29 1.66-.75 1.77-1.02.1-.27.81-.6 1.58-.75a3.84 3.84 0 0 0 1.88-.85 5.18 5.18 0 0 1 2.1-1.02 6.18 6.18 0 0 0 2.18-1c.31-.31 1-.57 1.52-.57 1.08 0 2.99-.78 2.99-1.22 0-.16.85-.42 1.9-.57a9.91 9.91 0 0 0 3.1-1c.66-.39 2.15-.83 3.3-.97 2.46-.31 3.3-.59 3.3-1.08 0-.73-4.95-.4-6.5.44-.83.44-1.98.8-2.57.8-.6 0-1.8.35-2.7.77-.9.43-2.37.97-3.28 1.2-.91.24-1.88.7-2.15 1.03-.27.33-.8.6-1.15.6-.36 0-1.73.54-3.05 1.2a14.7 14.7 0 0 1-2.88 1.2c-.26 0-.62.24-.8.54-.18.3-1 .77-1.82 1.03-.82.27-1.5.63-1.5.8 0 .17-.68.61-1.5.98a22.38 22.38 0 0 0-4.52 2.58c-.32.28-1.49 1.08-2.6 1.79-1.1.7-2.28 1.5-2.6 1.77-5.66 4.75-7.65 6.57-11.29 10.3-4.41 4.53-9.58 10.7-10.32 12.33-.28.6-.63 1.08-.79 1.08-.16 0-.59.59-.95 1.3-.37.72-1.19 2.11-1.81 3.1-.95 1.5-4.86 9.05-5.8 11.2-.13.33-.51 1.05-.83 1.6-.32.55-.58 1.4-.58 1.87 0 .48-.28 1.14-.6 1.47a8.2 8.2 0 0 0-1.17 2.73 19.6 19.6 0 0 1-1.2 3.33c-.35.66-.64 1.7-.64 2.32a8.8 8.8 0 0 1-.75 2.8c-.42.94-.85 3.12-.98 4.97-.16 2.13-.5 3.68-.95 4.37-1.05 1.61-1.08 31.03-.02 32.64.4.63.77 2.21.9 3.97.22 3.03.5 4.38.98 4.73.16.11.56 1.55.91 3.2.68 3.22 2.25 8.07 2.72 8.4a3 3 0 0 1 .57 1.2c.16.55.7 1.9 1.2 3l1.37 3c.24.55.6 1.27.78 1.6a46.87 46.87 0 0 1 2.33 4.5c.36.82.81 1.5 1 1.5.19 0 .34.24.34.53 0 .78 4.7 7.94 6.44 9.79.35.37 2.07 2.4 3.83 4.5 4.34 5.2 11.54 11.97 15.77 14.84a25 25 0 0 1 1.97 1.47c.33.28 1.2.91 1.96 1.4.76.48 1.84 1.18 2.4 1.56.57.39 1.66 1.02 2.43 1.4.77.4 1.54.92 1.7 1.18.17.26.83.58 1.48.72a3.5 3.5 0 0 1 1.65.84c.26.32 1.27.78 2.23 1.03.95.24 1.74.59 1.74.77 0 .19.76.54 1.7.8.94.24 1.98.7 2.33 1 .34.3 1.24.68 2 .82a9.4 9.4 0 0 1 2.57.97c.66.4 1.92.84 2.8 1 .88.14 1.99.51 2.47.81.47.3 2.09.74 3.58.98 1.5.24 2.9.59 3.13.78.6.48 4.85 1.17 7.22 1.15 1.1 0 2.72.32 3.6.72 2.3 1.04 21.22 1.1 23.4.08.82-.39 2.96-.76 5.14-.9 2.05-.13 4.3-.5 5-.82.7-.33 2.52-.79 4.05-1.03 1.54-.24 3.07-.67 3.4-.96a6.44 6.44 0 0 1 2.5-.8c1.05-.15 2.16-.53 2.47-.84a6.77 6.77 0 0 1 2.5-1 7.61 7.61 0 0 0 2.53-.98c.34-.3 1.38-.74 2.31-.99.94-.25 1.7-.61 1.7-.8 0-.2.4-.48.9-.62 1.08-.3 6.02-2.63 6.3-2.97.11-.12.83-.55 1.6-.94a27.7 27.7 0 0 0 2.44-1.4 81.92 81.92 0 0 0 4.56-3.17l2-1.5c7.96-5.76 18.35-16.96 24.5-26.4.71-1.1 1.3-2.22 1.3-2.5 0-.29.16-.52.36-.52.2 0 .55-.55.79-1.22.23-.67.79-1.68 1.24-2.25.44-.57.81-1.3.81-1.62 0-.32.36-1.04.8-1.6.44-.56.8-1.42.8-1.91 0-.5.34-1.33.77-1.87.42-.53.9-1.65 1.05-2.47.15-.83.52-1.74.81-2.03.3-.3.75-1.41 1-2.48.26-1.07.71-2.34 1-2.8.3-.48.76-2.1 1.03-3.6.27-1.52.64-2.85.81-2.97.44-.3 1.13-4.12 1.13-6.25 0-1 .3-2.22.7-2.83 1.27-1.93 1.08-30.81-.2-31.66-.21-.13-.5-1.73-.63-3.56a18.5 18.5 0 0 0-.84-4.6c-.32-.7-.78-2.34-1-3.65-.24-1.3-.67-2.65-.96-3a9.39 9.39 0 0 1-1.03-2.9c-.27-1.25-.67-2.34-.88-2.41-.22-.07-.58-.94-.8-1.92a7 7 0 0 0-.95-2.4 7.32 7.32 0 0 1-.99-2.3c-.25-.94-.62-1.7-.83-1.7-.22 0-.4-.22-.4-.5 0-.54-2.16-4.96-3.38-6.9-.63-1-2.23-3.42-5.81-8.77-.33-.5-.87-1.2-1.2-1.57-.33-.37-1-1.16-1.5-1.76-6.1-7.45-16.9-17.22-22.9-20.7a22.09 22.09 0 0 1-2.62-1.72c-.3-.28-1.1-.7-1.77-.94-.67-.23-1.21-.57-1.21-.75 0-.18-.68-.55-1.5-.82a9.73 9.73 0 0 1-2.45-1.23 3.48 3.48 0 0 0-1.64-.74c-.38 0-1.1-.36-1.6-.8-.5-.43-1.51-.9-2.25-1.03a3.69 3.69 0 0 1-1.8-.8 5.16 5.16 0 0 0-2.1-1c-.92-.23-2.4-.77-3.29-1.2a8.07 8.07 0 0 0-2.7-.77c-.59 0-1.74-.36-2.57-.8a8.12 8.12 0 0 0-3.97-.8c-1.96 0-2.57-.15-2.88-.7-.44-.79-9.25-1.35-9.25-.59m-20.9 14.36c-5.67.35-2.86 1.03 3.8.91 11.86-.2 16.3-.05 16.3.58 0 .41 1.2.68 4.8 1.06 3.28.34 4.8.66 4.8 1 0 .29 1.09.7 2.7 1 1.49.27 2.83.72 3 1 .16.27.97.62 1.8.77.82.16 1.95.53 2.5.82 2.74 1.47 6.08 2.99 6.58 2.99.31 0 .82.26 1.13.57.32.31 1.19.86 1.93 1.22a23.9 23.9 0 0 1 4.72 2.77c.39.35.83.64.97.64.74 0 9.16 6.92 12.45 10.23 2.27 2.29 6.22 6.62 6.22 6.83 0 .1.85 1.24 1.9 2.55 3.07 3.82 3.7 4.7 3.7 5.1 0 .2.35.69.79 1.08.43.39.98 1.3 1.21 2.02.24.73.69 1.42 1 1.53.3.12.67.84.82 1.61.14.77.5 1.48.78 1.6.29.1.65.8.8 1.52.16.73.6 1.87 1 2.53.38.66.82 1.86.96 2.66s.5 1.66.8 1.91c.3.25.68 1.3.83 2.34.16 1.04.6 2.43 1 3.09.39.66.84 2.37.99 3.8.15 1.43.52 2.98.82 3.45 1.62 2.5 1.61 29.43 0 31.9a9.96 9.96 0 0 0-.83 3.26 10.53 10.53 0 0 1-.82 3.28c-.3.49-.74 1.78-.98 2.86a17.23 17.23 0 0 1-1.2 3.5 7.04 7.04 0 0 0-.77 2.4c0 .5-.29 1.18-.63 1.53-.35.34-.82 1.3-1.04 2.13A6.93 6.93 0 0 1 275 238a7.67 7.67 0 0 0-.98 2.06c-.26.81-.73 1.57-1.05 1.7-.32.12-.58.55-.58.97 0 .41-.45 1.24-1 1.83-.55.6-1 1.28-1 1.53 0 .24-.27.73-.6 1.08a30.9 30.9 0 0 0-1.83 2.23c-6.64 8.76-12.92 14.93-20.6 20.2-.8.55-1.74 1.31-2.1 1.7-.36.38-.86.7-1.13.7-.26 0-1.01.45-1.67 1-.65.55-1.45 1-1.77 1-.31 0-.88.33-1.24.74a6 6 0 0 1-2.27 1.21c-.87.27-1.59.63-1.59.82 0 .18-.83.54-1.85.8a6.6 6.6 0 0 0-2.37 1 5.2 5.2 0 0 1-2.13.78c-.87.13-1.83.48-2.12.76-.3.28-1.7.75-3.13 1.03-1.43.3-2.87.76-3.2 1.05-.33.28-2.03.65-3.78.8-3.78.35-4.7.63-4.28 1.32.4.65 7.34-.01 8.6-.83a9.1 9.1 0 0 1 2.83-.82 8.85 8.85 0 0 0 2.8-.8c.46-.29 1.73-.75 2.83-1.02a8.38 8.38 0 0 0 2.6-1.03c.33-.3 1.36-.74 2.3-.99.94-.25 1.7-.62 1.7-.82 0-.2.59-.54 1.3-.75 1.2-.35 3.55-1.56 7.1-3.65 1.9-1.11 2.93-1.8 7.76-5.2 2.9-2.03 13.92-13.3 15.78-16.12l2.11-3.14c2.22-3.27 5.15-8.54 5.15-9.26 0-.35.25-.78.54-.96.3-.18.78-1.04 1.05-1.92.28-.88.75-1.87 1.03-2.2.29-.33.73-1.46 1-2.5.26-1.05.62-1.9.8-1.9.18 0 .54-1.03.8-2.3.28-1.26.76-2.73 1.09-3.26a11 11 0 0 0 .79-3.6c.1-1.45.42-3 .7-3.45 1.49-2.4 1.66-31.34.19-33.19-.18-.22-.52-1.8-.75-3.53a18.8 18.8 0 0 0-.87-3.92c-.24-.45-.7-1.82-1.01-3.06a12.74 12.74 0 0 0-.92-2.67 9.46 9.46 0 0 1-.84-2.02 15.8 15.8 0 0 0-1.25-2.85 5.18 5.18 0 0 1-.75-1.9c0-.36-.36-.97-.8-1.34-.44-.38-.8-.9-.8-1.17 0-.63-.6-1.95-1.81-3.94a54.76 54.76 0 0 1-1.68-3 5.76 5.76 0 0 0-1.21-1.72c-.27-.18-.5-.54-.5-.8s-.37-.93-.8-1.48c-3.92-4.93-5.69-6.9-10.27-11.49-2.9-2.9-5.96-5.72-6.8-6.27-.84-.56-2.97-2-4.73-3.22-1.76-1.21-3.4-2.2-3.64-2.21-.24 0-.75-.35-1.13-.77a4.1 4.1 0 0 0-1.73-1.03 6.52 6.52 0 0 1-2.02-1.03 3.6 3.6 0 0 0-1.48-.78c-.27 0-.92-.34-1.45-.75a6.8 6.8 0 0 0-2.3-1.04 11.2 11.2 0 0 1-2.6-1.01c-.69-.4-1.88-.85-2.64-1.01a8.05 8.05 0 0 1-2.2-.81c-.45-.28-1.88-.65-3.2-.8-1.3-.16-2.6-.52-2.88-.8-.55-.54-4.04-1.01-6.9-.93-1.25.03-1.92-.16-2.27-.64-.52-.7-13.35-1.17-20.26-.74m-10.08 1.73c-.87.16-1.65.5-1.73.73-.08.23-1.4.55-2.94.7-1.54.15-3.04.52-3.34.81-.3.3-1.4.73-2.45.97-1.06.24-2.14.6-2.4.82-.25.2-1.38.66-2.5 1-1.14.33-2.06.77-2.06.97 0 .2-.72.58-1.6.85-.88.26-1.6.6-1.6.77 0 .16-.68.59-1.5.95-.83.36-2.31 1.19-3.3 1.84a34.6 34.6 0 0 1-2.82 1.69 9.3 9.3 0 0 0-1.6 1c-.59.52-2.25 1.77-5.1 3.84-3.8 2.74-15.56 15.64-16.47 18.04-.22.56-.56 1.02-.77 1.02-.2 0-.59.63-.84 1.4-.25.77-.61 1.4-.8 1.4-.17 0-.51.54-.74 1.21a5.8 5.8 0 0 1-1.04 1.83c-.34.34-.73 1.1-.87 1.69a5.26 5.26 0 0 1-.72 1.67c-.75.96-3.03 5.56-3.03 6.11 0 .28-.36 1.17-.8 1.98-.43.82-.9 2.22-1.05 3.12-.14.9-.6 2.3-1 3.1a8.6 8.6 0 0 0-.75 3.27c0 1-.3 2.36-.68 3.02-.52.92-.71 2.51-.83 6.87-.23 7.96.43 8.55 1.03.93.3-3.74.69-6.36 1.04-6.91.31-.49.7-1.88.85-3.09.15-1.21.6-2.92.99-3.8.39-.88.84-2.22 1-2.97.16-.75.63-1.92 1.05-2.6a5.1 5.1 0 0 0 .75-1.98c0-.42.34-1.32.76-2 .41-.69.88-1.85 1.03-2.58.16-.73.53-1.42.84-1.54.3-.11.66-.8.8-1.54s.6-1.65 1.01-2.03c.42-.37.76-.88.77-1.12 0-.38 1.68-3.15 2.69-4.44.17-.22.65-.94 1.08-1.6.42-.66.96-1.4 1.2-1.65.23-.25.87-1.02 1.42-1.72 4.72-6 12.65-13.6 17.76-17.05l2.04-1.38c.82-.56 1.54-1.02 3.6-2.32.44-.28 1.47-.8 2.3-1.15.83-.36 1.5-.79 1.5-.96 0-.17.68-.52 1.5-.79a8.4 8.4 0 0 0 2.1-.96 9.49 9.49 0 0 1 2.3-1.01c.94-.3 1.7-.68 1.7-.86 0-.18.76-.5 1.7-.74.94-.23 2.42-.77 3.3-1.2.88-.43 2.45-.88 3.5-1.02 1.17-.15 1.9-.44 1.9-.76 0-.35.89-.6 2.7-.79 1.48-.14 3.6-.38 4.7-.53l2-.27-1.6-.3c-1.96-.36-3.9-.34-5.98.06m12.5 3.6c-2.7.15-4.93.47-5.27.76-.32.27-1.68.56-3 .64-3.52.23-5.25.62-5.25 1.19 0 .32-.94.58-2.66.74-1.46.14-3.03.5-3.5.8-.47.31-1.48.7-2.25.87-.76.16-2.02.63-2.79 1.03-.77.41-2.75 1.38-4.4 2.16a53.62 53.62 0 0 0-5.1 2.62c-.39.23-1.45.77-2.37 1.2a6.6 6.6 0 0 0-1.8 1.1c-.07.16-1.06.93-2.19 1.7-3.31 2.28-12.14 10.27-12.14 11 0 .14-.68.91-1.5 1.72-2.02 1.98-4.12 4.76-6.4 8.47l-1.6 2.6a24 24 0 0 0-1.27 2.46 6.67 6.67 0 0 1-1.17 1.9c-.22.14-.53.83-.68 1.55a6.64 6.64 0 0 1-1.03 2.24c-.41.53-.75 1.4-.75 1.94s-.34 1.42-.76 1.95a7.5 7.5 0 0 0-1.04 2.97c-.15 1.1-.5 2.13-.77 2.3-.28.16-.73 1.68-1 3.38s-.77 3.67-1.11 4.36c-1.42 2.83-1.4 29.33 0 32.37.36.76.86 2.64 1.12 4.18.25 1.54.7 2.93.97 3.1.27.16.62 1.15.78 2.2a9.8 9.8 0 0 0 1.05 3.15c.42.68.76 1.71.76 2.28 0 .57.33 1.36.74 1.75.41.4.88 1.26 1.04 1.92.15.66.52 1.47.8 1.8.29.33.74 1.28 1 2.1.27.83.63 1.5.81 1.5.18 0 .51.52.73 1.14 1.32 3.8 12.55 16.71 18.3 21.06.6.44 1.63 1.26 2.32 1.82 2 1.61 6.78 4.67 7.76 4.96.5.15.9.43.9.62 0 .18.67.56 1.5.82.82.26 1.77.71 2.1 1a5.3 5.3 0 0 0 1.8.81 6.9 6.9 0 0 1 2.15 1.03c.55.43 1.61.74 2.49.74.98 0 1.79.27 2.24.75.44.46 1.58.87 2.92 1.05 1.21.16 2.47.52 2.8.8 1.29 1.11 8.8 1.63 8.8.6 0-.33-3-.8-5.1-.8-.78 0-1.97-.34-2.65-.75-.69-.42-2.15-.88-3.25-1.04a7.05 7.05 0 0 1-2.6-.79 8.89 8.89 0 0 0-2.5-1 6.61 6.61 0 0 1-2.32-1.04 3.7 3.7 0 0 0-1.7-.8 6.8 6.8 0 0 1-2.23-1.03 3.57 3.57 0 0 0-1.38-.75 6.3 6.3 0 0 1-1.85-.93l-4.42-2.89a98.68 98.68 0 0 1-4.2-2.86l-2.14-1.62c-3.88-2.91-11.37-10.52-12.63-12.83-.2-.37-.49-.76-.65-.87-.51-.36-3.18-4-3.18-4.34 0-.19-.36-.66-.8-1.06-.44-.4-.8-.94-.8-1.21s-.28-.72-.62-1a5.93 5.93 0 0 1-1.19-1.87 7.48 7.48 0 0 0-1.17-1.96c-.34-.34-.62-.9-.62-1.25s-.42-1.38-.94-2.28c-.52-.9-1.07-2.15-1.22-2.78a4.23 4.23 0 0 0-.8-1.67c-.29-.28-.64-1.38-.78-2.42a6.16 6.16 0 0 0-.83-2.53c-.31-.35-.76-2.06-1-3.81-.25-1.75-.65-3.3-.9-3.46-1.43-.89-1.46-30.37-.03-31.8.32-.32.75-1.97.96-3.67.23-1.82.6-3.2.93-3.39.3-.16.66-1.2.81-2.3.15-1.12.53-2.27.83-2.57.3-.3.71-1.28.91-2.17.2-.89.75-2.1 1.21-2.69.47-.6.85-1.4.85-1.8 0-.4.2-.85.44-1 .25-.15.74-.92 1.1-1.72.37-.8 1.01-1.99 1.43-2.65a62.27 62.27 0 0 1 3.36-4.99 53.8 53.8 0 0 0 1.68-2.21c3.23-4.48 10.43-11.74 14.79-14.92 1.87-1.37 3.76-2.76 4.2-3.1a28.93 28.93 0 0 1 4.87-3c.51-.2.93-.52.93-.7 0-.2.72-.57 1.6-.83.88-.27 1.6-.65 1.6-.85 0-.2.77-.59 1.7-.85a8.25 8.25 0 0 0 2.32-1 8.46 8.46 0 0 1 2.66-.96c1.13-.24 2.15-.7 2.28-1.02.13-.34.76-.57 1.57-.57 1.52 0 3.87-.72 3.87-1.18 0-.17 1.92-.53 4.28-.8 2.87-.31 4.41-.67 4.7-1.07.66-.9 21.39-.88 22.05.02.67.92 7.71 1.66 8.48.9.63-.63.09-.79-4.51-1.3a29.7 29.7 0 0 1-4.2-.78c-2.23-.66-11.04-.96-17.28-.6m26.48 3.52c0 .56 2.2 1.29 3.87 1.29.82 0 1.44.23 1.58.59.13.32.89.7 1.69.85.8.15 2.09.6 2.86 1.02.77.4 2.03 1 2.8 1.33.77.33 1.67.76 2 .96.33.2 1.05.58 1.6.83 1.57.74 3.29 1.74 4.66 2.72.7.5 1.37.9 1.5.9.13 0 .58.31 1 .7.42.38 1.64 1.33 2.7 2.1 3.7 2.68 4.88 3.7 9.26 8.06a82.35 82.35 0 0 1 4.56 4.8c.38.52 1.12 1.48 1.65 2.14.52.66 1.97 2.73 3.2 4.6a80.91 80.91 0 0 0 2.78 4 32 32 0 0 1 2.07 3.8 29.55 29.55 0 0 0 1.82 3.4c.14.11.5 1.05.78 2.1.29 1.04.67 1.9.84 1.9.18 0 .54 1.03.81 2.3.27 1.27.75 2.51 1.07 2.77.36.3.73 1.76.95 3.77.26 2.34.57 3.43 1.06 3.8 1.07.77 1.06 30.25-.01 31.04-.49.37-.82 1.48-1.1 3.7-.25 1.94-.62 3.31-.95 3.5-.3.17-.68 1.29-.83 2.49-.15 1.2-.53 2.39-.84 2.65a5.27 5.27 0 0 0-1.01 2.13 7.8 7.8 0 0 1-.96 2.25 7.8 7.8 0 0 0-.99 2.1c-.27.82-.63 1.5-.8 1.5-.18 0-.56.58-.85 1.3a16 16 0 0 1-1.19 2.3l-1.81 2.8c-.64.99-1.92 2.79-2.86 4a879.3 879.3 0 0 0-2.4 3.13c-2.91 3.81-9.98 10.87-10.9 10.87-.22 0-.63.36-.9.8-.28.44-.7.8-.96.8-.25 0-.65.24-.9.54-.24.3-2.02 1.58-3.95 2.86a641.83 641.83 0 0 0-4.56 3.04 7.8 7.8 0 0 1-2.08.98c-.57.14-1.23.5-1.48.8-.24.3-1.1.75-1.91 1.02-.8.26-1.88.8-2.38 1.19a6.6 6.6 0 0 1-2.48.97c-.86.14-1.77.5-2.01.8-.25.3-1.44.67-2.63.82-1.2.15-2.61.61-3.14 1.03-.57.45-1.6.75-2.54.75-2.28 0-5.29.46-5.29.8 0 1 7.81.46 8.62-.6.24-.3 1.54-.67 2.91-.82 1.56-.18 2.61-.51 2.82-.88.19-.34 1.3-.75 2.5-.94 1.18-.19 2.2-.52 2.28-.74.07-.23.88-.6 1.8-.85a7.47 7.47 0 0 0 2.27-.96 5.31 5.31 0 0 1 1.6-.82 7.26 7.26 0 0 0 1.95-1.05 3.67 3.67 0 0 1 1.33-.74c.2 0 .95-.4 1.65-.9s1.56-1.08 1.91-1.3c4.8-2.97 14.44-11.66 17.65-15.9.76-1 3.3-4.23 3.92-4.99.21-.26.6-.94.86-1.5.25-.55.58-1.01.73-1.01.16 0 .6-.72 1-1.6.4-.88.86-1.6 1.03-1.6.17 0 .52-.67.79-1.5.26-.82.71-1.77 1-2.1a5.1 5.1 0 0 0 .8-1.8c.15-.66.53-1.4.83-1.65.3-.24.7-1.26.9-2.27.18-1 .61-2.1.94-2.43.34-.34.74-1.6.89-2.83.15-1.22.52-2.35.81-2.52.31-.17.73-1.64.98-3.48.25-1.75.61-3.28.81-3.41 1.68-1.03 1.57-29.51-.12-33.01a14.2 14.2 0 0 1-.86-3.57c-.15-1.3-.51-2.6-.8-2.88-.29-.3-.65-1.47-.81-2.62a8.77 8.77 0 0 0-1-3.11 7.24 7.24 0 0 1-.96-2.48c-.14-.8-.52-1.68-.84-1.95-.32-.27-.6-.78-.6-1.14 0-.36-.26-1.1-.58-1.65a62.3 62.3 0 0 1-1.4-2.6c-.95-1.9-1.2-2.3-3.75-6.2-3.07-4.67-6.91-9.06-13.15-15.03-2.8-2.68-9.73-7.77-10.57-7.77-.23 0-.74-.36-1.14-.8-.4-.44-1.05-.8-1.44-.8-.4 0-.83-.2-.98-.43A6.4 6.4 0 0 0 237 130a6.56 6.56 0 0 1-1.96-1.14c-.14-.22-.83-.52-1.54-.67a10 10 0 0 1-2.5-.98 9.87 9.87 0 0 0-2.8-1 5.67 5.67 0 0 1-2.28-.89c-.8-.72-5.92-1.25-5.92-.61m-29.55 3.74c-2.78.17-4.25.43-4.47.79-.2.32-1.57.63-3.58.8-2.11.19-3.42.5-3.73.88-.26.32-1.25.68-2.2.8-.95.12-2.03.47-2.4.8a5.8 5.8 0 0 1-2.27.86c-.88.16-2.14.6-2.8 1-.66.4-1.7.83-2.3.98-.6.14-1.1.41-1.1.6s-.59.58-1.3.88c-.72.29-2.02 1.04-2.9 1.66-2.9 2.05-4.7 3.3-5.36 3.7-.35.22-1 .7-1.44 1.07-.44.38-1.97 1.63-3.4 2.8a41.74 41.74 0 0 0-3.64 3.33c-2.97 3.35-6.76 8.05-6.76 8.35 0 .12-.9 1.42-2 2.89-1.1 1.47-2 2.92-2 3.22 0 .3-.17.54-.37.54-.2 0-.67.81-1.05 1.8s-.84 1.8-1.02 1.8c-.18 0-.55.76-.81 1.7-.27.94-.74 2-1.05 2.37a5.76 5.76 0 0 0-.78 2.4c-.12.95-.47 1.94-.79 2.19-.33.27-.7 1.62-.87 3.25-.17 1.63-.55 3.04-.91 3.4-.66.65-1.41 8.34-.9 9.16.47.77.94-.62.97-2.87.04-2.94.57-6.02 1.09-6.34.23-.15.63-1.43.89-2.86s.7-2.87.98-3.2a8 8 0 0 0 1.02-2.2 8 8 0 0 1 1.02-2.2c.28-.33.65-1.14.8-1.8.16-.66.51-1.47.8-1.8.27-.33.8-1.23 1.15-2 1.49-3.17 4.79-8.05 8.4-12.38a47.47 47.47 0 0 1 6.9-7.12c4.25-3.74 7.23-5.85 13.53-9.6 1.67-.99 7.3-3.7 7.7-3.7.23 0 .5-.25.62-.54.12-.3 1.09-.66 2.16-.8a8.17 8.17 0 0 0 2.73-.81c.94-.65 4.47-1.45 6.39-1.45.74 0 1.47-.2 1.61-.43.97-1.55 23.4-1.9 25.45-.4.6.46 1.7.83 2.42.84 1.75.01 4.63.67 6.12 1.4a18 18 0 0 0 2.9 1c.94.23 1.7.58 1.7.77 0 .19.9.56 2 .82 1.1.26 2 .62 2 .79 0 .16.86.7 1.9 1.18 2.48 1.14 3.74 1.86 8.3 4.78 4.24 2.71 16.2 13.72 16.2 14.91 0 .17.32.63.72 1.02.4.4 1.59 2.07 2.66 3.72 1.06 1.65 2.24 3.45 2.62 4 .37.55.9 1.68 1.17 2.5.27.83.64 1.5.83 1.5.19 0 .55.68.82 1.5.26.83.81 2.06 1.23 2.75.41.68.75 1.5.75 1.81 0 .31.36 1.27.8 2.13.43.86 1 2.6 1.25 3.88.25 1.28.6 2.33.76 2.33.45 0 .7 1.32 1.2 6.4.26 2.53.63 4.8.83 5.04.2.25.62 1.15.93 2l.57 1.56.03-1.91a5.7 5.7 0 0 0-.65-2.95c-.48-.75-.75-2.3-.92-5.49-.17-3.05-.46-4.83-.92-5.65a6.47 6.47 0 0 1-.7-2.6 8.5 8.5 0 0 0-.78-3 8.05 8.05 0 0 1-.79-2.35c0-.4-.35-1.4-.76-2.2l-2.3-4.56c-2.03-4.08-2.67-5.21-3.28-5.91a38.93 38.93 0 0 1-2.67-3.96c-.22-.36-.62-.91-.9-1.24-.27-.32-1.65-2.02-3.06-3.78a68.1 68.1 0 0 0-9.92-9.48c-.5-.38-1.46-1.1-2.12-1.62a46.38 46.38 0 0 0-2.2-1.6 166 166 0 0 1-2.71-1.89 9.23 9.23 0 0 0-2.05-1.21 6.7 6.7 0 0 1-1.71-.94 9.94 9.94 0 0 0-2.56-1.23 5.24 5.24 0 0 1-1.77-.81 5.79 5.79 0 0 0-2.18-.8c-.87-.16-1.77-.54-2-.86-.23-.32-1.41-.68-2.62-.81-1.21-.14-2.4-.5-2.66-.83-.3-.36-1.64-.69-3.53-.87-1.69-.16-3.19-.5-3.34-.73-.58-.94-14.18-1.44-23.62-.87m7.78 14.7c-.72.29-.72.33-.07.58 1.02.39 3.35.33 3.61-.09.47-.75-2-1.08-3.54-.48m-9.9 1.24c-1.84.18-3.33.54-3.68.9-.33.32-1.5.71-2.6.86-1.11.14-2.26.5-2.56.8-.3.3-1.3.67-2.22.83a5.3 5.3 0 0 0-2.19.79c-.28.27-1.16.72-1.96.98a5.3 5.3 0 0 0-1.94 1.06c-.26.32-.67.58-.9.58-1.72 0-10.12 7.3-15.09 13.1-2.5 2.91-5.59 7.4-5.59 8.1 0 .2-.45 1.03-1 1.84a6.4 6.4 0 0 0-1 1.93c0 .25-.36 1.17-.8 2.03a7.4 7.4 0 0 0-.8 2.67c0 .6-.28 1.25-.63 1.44-.43.25-.71 1.28-.92 3.45-.19 1.97-.5 3.22-.86 3.45-1.18.72-1.23 22.82-.05 23.55.29.18.69 1.64.89 3.25.2 1.6.61 3.2.91 3.56.3.34.66 1.33.79 2.18.13.85.48 1.84.78 2.2.3.36.76 1.4 1.02 2.3.26.91.74 1.88 1.07 2.15.33.28.6.7.6.95.01.25.55 1.26 1.21 2.25l1.7 2.55c2.06 3.15 7.5 8.77 11.69 12.1l3.68 2.95c.26.22 1.12.7 1.9 1.07.78.37 1.42.81 1.42.97 0 .16.68.51 1.5.78.83.26 1.77.7 2.1.98a5.4 5.4 0 0 0 1.8.78c.66.15 1.51.56 1.9.9.38.35 1.64.72 2.8.83 1.33.12 2.36.47 2.82.94.8.84 8.59 1.18 8.08.35-.14-.22-.73-.4-1.32-.4-2.16-.02-10.75-2.46-11.28-3.2a6.1 6.1 0 0 0-1.8-.8 8.06 8.06 0 0 1-2.2-1.02 6.4 6.4 0 0 0-1.6-.9c-.88-.34-4.7-2.75-7.58-4.79a55.7 55.7 0 0 1-6.82-5.87 57.09 57.09 0 0 1-6.57-8.62 373.62 373.62 0 0 0-2.63-4 12.2 12.2 0 0 1-1.17-2.5c-.27-.82-.64-1.5-.83-1.5-.19 0-.46-.58-.6-1.3a20.3 20.3 0 0 0-1.19-3.3c-.5-1.1-1.03-2.97-1.18-4.14a9.38 9.38 0 0 0-.95-3.19c-1.01-1.54-1-18.77 0-20.87.38-.77.88-2.57 1.13-4 .25-1.43.7-2.87.99-3.2.3-.33.66-1.28.81-2.1.16-.83.6-1.91.98-2.4a7.2 7.2 0 0 0 1.01-1.9c.17-.55.64-1.43 1.06-1.95.4-.53.74-1.18.74-1.44 0-.27.45-1 1-1.65.55-.64 1-1.31 1-1.5 0-1.27 6.47-8.55 10.74-12.08 3.32-2.75 3.09-2.57 5.38-4a39.66 39.66 0 0 0 3.03-2.05 7 7 0 0 1 2.16-1.14 3.42 3.42 0 0 0 1.5-.8 5.2 5.2 0 0 1 1.92-1.02c.8-.26 1.74-.7 2.07-.98a6.45 6.45 0 0 1 2.4-.78 8.76 8.76 0 0 0 2.64-.82c1.1-.69 4.95-1.39 7.67-1.39 1.55 0 2.11-.14 2-.5-.2-.6-2.29-.7-6.39-.3m17.15-.13c-.65.64-.06.82 3.31 1.04 1.97.13 4.18.52 4.9.86.73.34 2.4.9 3.7 1.25 1.32.34 2.5.77 2.6.96.13.2.91.48 1.75.63.84.16 1.83.61 2.2 1 .37.4 1.17.85 1.77 1 .61.15 1.2.44 1.33.64.19.3 2.43 1.88 6.86 4.81 2.44 1.62 7.36 6.39 9.35 9.05a132.8 132.8 0 0 0 2.6 3.42c.25.28.76 1.04 1.14 1.69.37.65 1.11 1.9 1.65 2.78a46.2 46.2 0 0 1 1.83 3.4c.47.99.99 1.89 1.16 2 .16.11.51 1 .77 1.96.26.97.71 2.14 1 2.6.28.46.75 2.1 1.03 3.64.29 1.6.78 3 1.14 3.27 1 .73.95 18.93-.06 20.9-.39.75-.9 2.55-1.13 4-.23 1.44-.65 2.89-.94 3.22a5.12 5.12 0 0 0-.8 1.8c-.36 1.48-2.62 6.23-3.31 6.94-.29.29-.52.74-.53 1 0 .26-.63 1.37-1.4 2.47-.78 1.1-1.71 2.45-2.08 3-.95 1.4-5.82 7.38-6.13 7.52-.15.06-.97.75-1.82 1.53-.86.78-2.26 1.9-3.12 2.48l-2.44 1.67c-1.27.87-2.84 1.9-4.1 2.7-1.73 1.09-6.25 3.27-6.8 3.29-.28 0-.5.17-.5.36 0 .19-1.13.66-2.5 1.04-1.38.38-2.7.85-2.93 1.05-.24.19-1.81.55-3.5.8-4.06.6-3.9 1.16.33 1.16 2.91 0 3.5-.12 4.1-.8.46-.54 1.17-.8 2.21-.8 1.43 0 3.41-.73 7.89-2.92a36.18 36.18 0 0 0 4.95-2.92c.64-.42 1.5-.96 1.9-1.2 1.7-.98 7.9-6.5 9.95-8.86 1.21-1.38 2.6-2.93 3.1-3.45s.9-1.12.9-1.33c0-.22.36-.72.8-1.12.44-.4.8-.9.8-1.12 0-.22.4-.96.9-1.64.8-1.1 2.67-4.63 3.3-6.24.13-.33.5-1.05.81-1.6.32-.55.58-1.53.58-2.17 0-.64.3-1.48.64-1.87.35-.38.8-1.93.98-3.43.2-1.5.64-3.31 1-4.02.96-1.94.73-21.41-.27-22.2-.48-.37-.7-1.3-.82-3.38-.1-2-.35-3.1-.83-3.63a2.94 2.94 0 0 1-.69-1.69c0-1.14-1.93-5.53-3.78-8.61l-1.65-2.8a5.09 5.09 0 0 0-1.22-1.52c-.3-.18-.55-.54-.55-.8-.01-1.18-12.55-13.87-13.73-13.88-.18 0-.9-.43-1.6-.95a9.2 9.2 0 0 0-2.17-1.23c-.5-.15-.9-.44-.9-.65 0-.2-.2-.37-.44-.37-.25 0-1.28-.42-2.3-.93a16 16 0 0 0-3.22-1.2c-.74-.15-1.55-.54-1.8-.87-.24-.33-1.34-.7-2.44-.85-1.1-.13-2.2-.49-2.43-.78-.58-.72-9.7-1.7-10.3-1.1m-8.7 14.7c-.1.09-1.7.47-3.57.85-4.1.84-8.4 2.8-11.94 5.48a31.2 31.2 0 0 1-3.54 2.41c-.5.23-.92.56-.92.74 0 .18-.5.59-1.12.9-1.4.73-8.08 7.42-8.08 8.1 0 .28-.24.65-.53.83-.67.4-3.07 4.63-3.07 5.4 0 .33-.36 1.01-.8 1.52-.53.6-.8 1.5-.8 2.6s-.27 2-.8 2.6c-1.32 1.52-1.29 18.7.04 21.17.42.78.76 1.93.76 2.55 0 .62.34 1.79.77 2.6.42.81.97 1.93 1.22 2.48 1.48 3.28 5.15 8.1 7.84 10.31 2.87 2.36 3.67 3.96 3 6-.77 2.34-.34 3.14 2.09 3.86a18.3 18.3 0 0 1 4.08 1.92c6.06 4 9.83 5.11 17.39 5.11 10.83 0 22.53-5.68 26.15-12.69.79-1.52 7.71-10.18 8.5-10.63.3-.18.56-.56.56-.85a4 4 0 0 1 .83-1.58 8.54 8.54 0 0 0 1.24-2.52c.22-.8.63-1.69.9-1.97.29-.27.63-1.52.78-2.77.15-1.24.53-2.53.86-2.85.85-.86.87-18.36.02-19.57a7.06 7.06 0 0 1-.82-2.39c-.13-.87-.58-2.3-.99-3.18l-1.2-2.6a44.32 44.32 0 0 0-3-5.04 71.14 71.14 0 0 0-4.9-5.33c-2.6-2.63-4.12-4.48-4.12-5 0-4.16-11.4-8.63-22.01-8.63-2.56 0-4.73.08-4.82.17m-20.37 13.87c0 .66-.31 1.78-.69 2.48-1.09 2.02-.9 7.55.42 12.42.72 2.64.99 4.42.83 5.42-.25 1.57.18 2.23 1.62 2.5 1.5.28 2.4 2.59 2.27 5.84-.06 1.62.08 3.17.3 3.44a8 8 0 0 1 .83 2.39c.63 2.8 2.96 5.96 6.7 9.08 3.96 3.3 14.48 4.3 19.42 1.84 1.27-.63 2.3-1.4 2.3-1.7 0-.65 1.33-.72 2.43-.14 1.28.69 1.06 3.1-.33 3.63a6.8 6.8 0 0 0-1.7.94c-.33.29-1.05.66-1.6.82-.55.17-1.3.62-1.68 1.01-1.47 1.54-13.53 1.53-14.93-.02a4.07 4.07 0 0 0-1.83-1c-.63-.14-1.26-.42-1.39-.64a9.12 9.12 0 0 0-1.82-1.38c-2.38-1.5-7.55-6.95-7.55-7.96a5.3 5.3 0 0 0-.97-1.77 8.43 8.43 0 0 1-1.24-3.3 5.1 5.1 0 0 0-1.23-2.94l-.96-.96v1.15c0 .63.2 1.2.44 1.29.24.08.53 1.04.63 2.13.2 2.05 2.29 6.99 2.96 6.99.2 0 .37.27.37.6 0 .67 5.78 6.6 6.44 6.6.24 0 .9.36 1.45.8.56.44 1.4.8 1.88.8.47 0 1.3.31 1.84.7 1.59 1.12 13.98 1.19 16.1.09a6.9 6.9 0 0 1 2.32-.79c.44 0 1.22-.45 1.73-1 1.73-1.86 4.02-.9 3.58 1.52-1.72 9.25-16.78 14.38-25.84 8.79-2.28-1.41-3-2.01-7.56-6.36-3.07-2.92-4.54-2.45-5.32 1.68-.14.74-.44 1.46-.66 1.6-.49.3-2.76-.58-2.76-1.06 0-.19-.54-.89-1.19-1.56a40.56 40.56 0 0 1-5.93-8.45c-.82-1.54-1.7-3.2-1.97-3.68-.28-.49-.5-1.2-.5-1.6 0-.4-.42-1.57-.91-2.6-1.2-2.51-1.38-16.15-.23-18.38.36-.7.8-1.88.95-2.6.36-1.7 3.72-8.53 4.88-9.92l2.78-3.38a26.08 26.08 0 0 1 2.66-2.95c.2-.08.72-.57 1.16-1.09 1-1.14 1.5-.9 1.5.68m31.55-.6c2.12.58 5.45 1.84 7.4 2.8 4.08 2.02 4.04 2.02 5.94-1.33 1.56-2.76 2.63-3.08 4.26-1.25.65.74 1.92 2.14 2.8 3.1 2.1 2.3 6.05 8.12 6.05 8.91 0 .34.33 1.05.74 1.58.4.52.85 1.53.99 2.25.14.71.63 2.13 1.09 3.14 1.53 3.37 1.52 16.86-.02 18.76-.18.22-.6 1.39-.92 2.6a23.76 23.76 0 0 1-1.83 4.4 80.16 80.16 0 0 0-1.87 3.58c-2.18 4.58-3.78 4.75-3.78.4 0-2.57-1.12-5.99-3.58-10.98a29.17 29.17 0 0 1-1.8-4.3c-.2-.92-.44-1.1-1.53-1.11-1.39-.02-2.36-.99-2.81-2.8-.22-.9-.42-.99-1.96-.88-2.25.16-4.58-1.87-4.97-4.33-.14-.86-.5-1.77-.8-2.02-.3-.25-.55-.67-.55-.92 0-.75-3.64-4.04-5.51-4.98-1.86-.93-8.89-1.3-8.89-.46 0 .46.2.49 3.26.4 1.76-.04 2.42.12 3 .72.4.43 1.38.98 2.15 1.23 1.76.56 6.39 5.12 6.39 6.28 0 1.63-1.82 1.14-10.58-2.84-4.4-2-4.42-2.02-4.54-3.5-.13-1.45-.17-1.49-1.7-1.49-3.08 0-4.46-3.32-1.74-4.2.68-.22 1.5-.6 1.8-.86 1.58-1.28 10.04-1.06 11.61.3.48.42 1.1.76 1.36.76.83 0 4.48 3.14 6.17 5.32.89 1.14 1.79 2.3 2 2.55.22.26.6 1.34.86 2.4.25 1.06.68 2.11.94 2.33.27.22.61.9.76 1.5.15.6.45 1.1.67 1.1.6 0 .47-2.16-.2-3.45a5.46 5.46 0 0 1-.6-2c-.02-2.77-6.52-10.57-9.32-11.16a5.29 5.29 0 0 1-2.03-.93c-1.28-1.13-12.38-.91-13.47.26-1.24 1.33-3.49 1.22-3.84-.18-.47-1.85.27-3.1 2-3.38.84-.13 1.65-.44 1.8-.68 1.02-1.64 12.15-1.64 13.79 0 .34.34 1.25.74 2.03.89.77.14 1.55.48 1.72.76.17.27.76.78 1.31 1.13 2.73 1.73 5.83 5.04 7.78 8.3.22.35.71 1.13 1.1 1.72.4.6.93 2.04 1.18 3.2.24 1.16.7 2.3 1 2.52.37.26.62 1.38.7 3.11.17 3.96.64 3.79.64-.24 0-2.82-.11-3.47-.6-3.47-.46 0-.6-.5-.6-2.14 0-4.32-5.89-12.68-10.2-14.48a4.79 4.79 0 0 1-1.57-.93c-.13-.2-1.13-.59-2.23-.85s-2-.63-2-.8c0-.51-7.21-.92-10.76-.6-2.22.2-3.24.44-3.24.8 0 .84-2.8 1.17-3.55.42-1.32-1.31 1.95-5.2 5.4-6.43 2.65-.95 8.48-.74 12.9.45M339.22 183c-.07.55-.08 34.65 0 35.4.02.33.22.06.43-.6.5-1.58.5-32.42 0-34-.2-.66-.4-1.02-.43-.8m-5.42 2.91c-.59.43-.54 29.63.05 29.85.68.26.94-4.25.9-15.76-.02-10.78-.28-14.57-.95-14.09M80 200.8c0 7.57.1 9.66.48 9.3.33-.34.5-2.86.56-8.19a346 346 0 0 1 .16-8.65 2.28 2.28 0 0 0-.56-1.58c-.59-.59-.64.18-.64 9.12m46.8.21c0 4.85.13 6.63.46 6.51.63-.2.6-12.82-.02-13.03-.3-.1-.44 1.86-.44 6.52m48.9-2.4c0 .88.09 1.2.18.7.1-.5.1-1.22 0-1.6-.1-.39-.18.02-.18.9m10.17 3.1c1.47 1.55 2.13 2.75 2.13 3.88 0 1.81 4.41 6.82 6.01 6.82.29 0 .81.25 1.16.56.66.59 2.55.78 6.75.7 3.97-.1 2.56-.86-1.56-.86-2.67 0-3.64-.14-3.8-.55-.11-.3-.92-.87-1.78-1.26-.87-.4-1.58-.87-1.58-1.06 0-.2-.43-.54-.96-.78a3.25 3.25 0 0 1-1.39-1.4c-.24-.52-.69-.95-1-.95-.82 0-1.14-2.1-.4-2.67.61-.46 1.7-.1 6.8 2.3.9.42 1.8.77 2 .77.2 0 .99.33 1.76.74.76.4 2.06.96 2.89 1.23 1.28.42 1.5.66 1.5 1.66 0 1.13.06 1.17 1.96 1.17 3.66 0 5.38 3.21 2.24 4.2-.88.28-2.23.84-3 1.25-1.91 1.02-9.58 1.07-11.4.07-.66-.37-1.78-.94-2.49-1.27-1.49-.7-6.51-5.65-6.51-6.43 0-.29-.27-.75-.6-1.02a5.48 5.48 0 0 1-1.07-2.15 8.1 8.1 0 0 0-.98-2.26 6.11 6.11 0 0 1-.78-2.3l-.27-1.69h1.57c1.26 0 1.82.26 2.8 1.3m-70.04 3.59c-.53 1.2-.1 11.7.51 12.44.3.36.7 2 .88 3.64.19 1.65.6 3.4.91 3.91.32.5.7 1.64.86 2.52.15.88.51 1.98.8 2.44.3.46.76 1.63 1.02 2.6.25.97.7 2.03.98 2.36.28.33.72 1.26.98 2.07.26.8.71 1.67 1.01 1.91.3.25.66.93.8 1.5.15.58.62 1.5 1.05 2.04.42.54.77 1.2.77 1.47s.36.81.8 1.21c.44.4.8.91.8 1.15 0 .52 3.57 5.76 5.75 8.45 2.38 2.92 11.43 11.7 14.33 13.9.5.38 1.62 1.23 2.47 1.9a7.4 7.4 0 0 0 1.92 1.2c.34 0 .82.3 3.79 2.3a9 9 0 0 0 2.28 1.12c.57.14 1.23.5 1.47.8.25.29.96.64 1.59.78.63.14 1.36.5 1.62.82.26.32 1.22.77 2.13 1.01.9.25 1.92.68 2.25.97.33.28 1.23.71 2 .94.77.24 2.39.79 3.6 1.23 1.21.44 2.73.81 3.37.82.64 0 1.5.32 1.93.7.87.8 8.7 1.33 8.7.6 0-.5-1.05-.76-4.4-1.11a11.32 11.32 0 0 1-3.46-.81c-.48-.3-2-.72-3.38-.95-1.4-.22-2.66-.65-2.84-.98-.18-.31-1.09-.7-2.02-.85a9.88 9.88 0 0 1-2.95-1.03 5.17 5.17 0 0 0-2.04-.76c-.44 0-1.23-.33-1.76-.74a6.9 6.9 0 0 0-2.15-1.03 4.55 4.55 0 0 1-1.92-1.06c-.39-.42-.95-.77-1.25-.77-.3 0-.78-.3-1.08-.66-.3-.37-1.13-.9-1.85-1.2-.72-.3-1.3-.72-1.3-.92 0-.2-.34-.48-.77-.6-.68-.23-1.48-.79-4.72-3.32a77.32 77.32 0 0 0-1.98-1.5c-2.3-1.7-10.56-10.17-13.27-13.6-4.13-5.23-4.46-5.69-4.46-6.1 0-.2-.35-.7-.78-1.09a5.68 5.68 0 0 1-1.24-2.06c-.24-.74-.6-1.35-.78-1.35-.19 0-.55-.67-.82-1.5a7.8 7.8 0 0 0-1-2.1 7.68 7.68 0 0 1-.96-2.3c-.25-.94-.6-1.7-.79-1.7-.18 0-.55-.85-.81-1.9a8.1 8.1 0 0 0-1-2.5 8.3 8.3 0 0 1-.97-2.71c-.25-1.16-.7-2.51-1-3-.31-.49-.69-1.92-.84-3.19-.15-1.26-.52-2.55-.82-2.85-.36-.36-.73-2.69-1.1-6.9-.33-3.72-.68-6.06-.86-5.66m156.64.34c-.38.61-.41.99-.11 1.29.6.6.92.14.77-1.1-.13-1.05-.13-1.05-.66-.19m-1.2 2.8c-.55 4.9-1.34 9.77-1.61 9.95-.19.12-.57 1.21-.85 2.42a13.4 13.4 0 0 1-1.02 3.04 12.2 12.2 0 0 0-1 2.6 8.1 8.1 0 0 1-.97 2.36c-.28.33-.7 1.14-.93 1.8-.23.66-.97 2.19-1.63 3.4a62.2 62.2 0 0 0-1.88 3.7c-.37.83-.8 1.5-.98 1.5-.16 0-.52.53-.79 1.17-.26.64-.74 1.27-1.05 1.39-.3.12-.56.45-.56.73 0 .28-.4.99-.9 1.57-.5.59-1.35 1.63-1.9 2.31-.83 1.04-3.94 4.18-8.16 8.24-3.17 3.06-8.36 6.77-11.71 8.37a4.9 4.9 0 0 0-1.5.98c-.14.21-.91.6-1.74.86a7.8 7.8 0 0 0-2.09 1c-.33.28-1.37.7-2.3.96-.94.25-1.7.62-1.7.82 0 .2-.76.56-1.7.79-.94.23-2.21.68-2.84 1.01-.62.33-2.38.81-3.9 1.06-1.96.33-2.76.63-2.76 1.05 0 .45.3.53 1.25.34.69-.14 2.01-.25 2.94-.25 1.11 0 2-.27 2.61-.8.5-.44 1.49-.8 2.18-.8.69 0 1.96-.36 2.82-.8a8.1 8.1 0 0 1 2.02-.8c.57 0 8.9-4.27 9.6-4.92a28 28 0 0 1 2.75-1.83c1.22-.74 2.23-1.5 2.23-1.7 0-.2.2-.35.45-.35.24 0 1.02-.5 1.72-1.1.7-.6 1.87-1.55 2.6-2.1 2.41-1.8 5.65-5.22 8.66-9.14l3.6-4.66c2.2-2.83 6.57-10.7 6.57-11.81 0-.38.26-.9.57-1.17.32-.26.77-1.4 1.02-2.53.24-1.13.63-2.18.86-2.32.23-.14.56-1.48.75-2.97.19-1.5.57-2.86.86-3.04.66-.4 1.01-4.48.71-8.16-.13-1.54-.26-2.52-.3-2.17m-143.02 1.44c-.4 1.3.38 8.98.96 9.34.29.18.66 1.43.82 2.78.16 1.35.58 2.77.93 3.16.35.4.64 1.16.64 1.7s.35 1.67.78 2.5c.42.84.89 2.05 1.03 2.68.14.64.43 1.27.65 1.4.22.15.76 1 1.19 1.91 1.27 2.69 2.01 3.99 3 5.26 1.22 1.56 1.72 2.23 4.19 5.6a58.59 58.59 0 0 0 2.8 3.6c2.88 3.07 6.38 6.47 7.56 7.35.77.58 1.49 1.16 1.6 1.3a58.2 58.2 0 0 0 3.6 2.5 91.01 91.01 0 0 1 3.95 2.71c.89.75 8.98 4.74 9.61 4.74.32 0 .9.3 1.3.66.4.36 1.66.75 2.8.86 1.25.12 2.34.48 2.8.94.53.53 1.33.74 2.84.75 1.16 0 2.5.1 3 .24.66.18.9.07.9-.4 0-.4-.34-.65-.9-.65-1.55-.01-8.11-2.03-10.3-3.17-.77-.4-1.98-.86-2.7-1.01-.7-.16-1.4-.46-1.54-.68a6.8 6.8 0 0 0-1.9-1.18 39.62 39.62 0 0 1-3.26-1.75 49.63 49.63 0 0 0-2.6-1.5c-1.48-.75-5.52-3.79-8.94-6.71-3.5-3-10.28-10.44-10.96-12.03-.28-.64-.66-1.17-.85-1.17-.2 0-.58-.54-.85-1.2-.27-.66-.64-1.2-.8-1.2-.17 0-.62-.67-1-1.5a38.18 38.18 0 0 0-2.85-5.35 8.42 8.42 0 0 1-.93-2.05c-.26-.83-.63-1.5-.8-1.5-.17 0-.55-.86-.83-1.9a9.07 9.07 0 0 0-1-2.5c-.28-.33-.72-1.68-.98-3a21.12 21.12 0 0 0-1.04-3.66c-.32-.7-.73-2.82-.92-4.72-.37-3.6-.62-4.39-1-3.15m-46.72 2.53c-.23.66 0 8.86.3 10.32.54 2.6 1.05.1.79-3.87-.31-4.75-.75-7.38-1.09-6.45m-14.44 5.04c-.72.72-.02 10.38.79 10.9.23.14.54 1.63.7 3.3.15 1.68.52 3.52.82 4.09.3.57.75 2.08 1 3.36.26 1.27.7 2.68 1 3.13.28.44.72 1.84.98 3.09.26 1.25.63 2.37.82 2.49.19.11.55.88.8 1.7.26.83.8 2.22 1.2 3.1l1.8 4a44.08 44.08 0 0 0 1.44 3c.2.33.52.96.72 1.4a32.58 32.58 0 0 0 2.51 5c.2.33.72 1.32 1.16 2.2a46.7 46.7 0 0 0 1.97 3.4 45.1 45.1 0 0 1 1.83 3.1c.36.72.8 1.3.95 1.3.16 0 .52.5.8 1.1.27.6.76 1.37 1.08 1.7.33.33 1.93 2.4 3.57 4.6 3.75 5.03 6.45 8.09 11.82 13.4 6.23 6.16 7.8 7.6 8.3 7.6.25 0 .45.16.45.35 0 .33.69.88 5.11 4.14.82.6 1.75 1.33 2.08 1.6.32.28.87.69 1.23.91a120.3 120.3 0 0 1 5.98 3.99c.77.54 1.85 1.22 2.4 1.5.55.27 1.09.6 1.2.75.51.66 12.36 6.36 13.21 6.36.26 0 .92.36 1.48.8.56.44 1.31.8 1.67.8.36 0 1.28.34 2.05.75.76.4 2.02.88 2.79 1.04.77.16 1.8.55 2.3.87.5.31 1.95.76 3.2 1 1.27.23 2.41.6 2.55.82.13.22 1.48.65 3 .97 1.51.31 3.29.82 3.95 1.12 1.51.7 7.01 1.19 7.75.69.9-.6-.54-1.11-3.93-1.42-1.72-.15-3.25-.5-3.63-.85-.36-.32-1.8-.7-3.22-.84-1.41-.13-2.76-.48-2.99-.76-.23-.29-1.45-.71-2.72-.94-1.26-.24-2.55-.69-2.87-1-.31-.31-1.49-.7-2.6-.85-1.17-.16-2.14-.52-2.26-.84-.12-.31-.92-.68-1.77-.81a5.76 5.76 0 0 1-2.42-1 3.12 3.12 0 0 0-1.5-.76c-.35 0-1.09-.26-1.64-.58-1-.59-3.17-1.73-5.4-2.85a26.3 26.3 0 0 1-1.8-.98c-.33-.21-1.23-.7-2-1.08a5.16 5.16 0 0 1-1.54-1.01 4.26 4.26 0 0 0-1.49-.88 9.2 9.2 0 0 1-1.86-1 54.8 54.8 0 0 0-3.07-2.13c-2.86-1.88-3.63-2.4-5.88-3.98-.86-.6-2.01-1.4-2.56-1.8a7.98 7.98 0 0 1-1.52-1.4c-.29-.38-.72-.7-.95-.7-.74 0-15.6-14.51-17.93-17.51l-1.8-2.27-1.48-1.9c-.38-.5-1.1-1.46-1.62-2.12a51.63 51.63 0 0 1-1.72-2.36L90 276.21c-.33-.47-1-1.48-1.49-2.24a188.8 188.8 0 0 0-1.3-1.97c-2.2-3.27-2.8-4.26-2.8-4.64 0-.24-.37-.85-.81-1.36-.44-.5-.8-1.13-.8-1.38 0-.26-.45-1.07-1-1.82s-1-1.67-1-2.05c0-.38-.28-.97-.62-1.31a6 6 0 0 1-1.05-1.93 7.3 7.3 0 0 0-.95-1.91 8.2 8.2 0 0 1-.98-2.4 8.1 8.1 0 0 0-.99-2.4 5.91 5.91 0 0 1-.8-2.2 6.04 6.04 0 0 0-.78-2.2 9.63 9.63 0 0 1-.99-2.87c-.27-1.25-.66-2.34-.87-2.4-.2-.08-.55-1.19-.76-2.48a11.3 11.3 0 0 0-.94-3.2c-.3-.47-.78-2.38-1.06-4.25s-.74-3.67-1.01-4c-.28-.33-.63-2.25-.78-4.28-.3-4.07-.69-5.92-1.13-5.48m265.17.34c-.13.36-.36 2.4-.5 4.53-.14 2.15-.5 4.28-.8 4.76-.3.49-.74 2.2-.98 3.8a21.26 21.26 0 0 1-1.21 4.56c-.42.9-.77 2.22-.77 2.95s-.34 1.89-.75 2.57a9.96 9.96 0 0 0-1.02 3.12c-.15 1.02-.53 2.08-.85 2.35-.32.27-.7 1.2-.84 2.06a4.8 4.8 0 0 1-.79 2.1c-.29.3-.7 1.3-.9 2.2a6.6 6.6 0 0 1-.95 2.35 8.17 8.17 0 0 0-1.05 2.37c-.26.94-.64 1.7-.84 1.7-.19 0-.56.68-.83 1.5a7.63 7.63 0 0 1-1 2.1 7.56 7.56 0 0 0-.96 1.6c-.24.55-.97 1.81-1.61 2.8a99.9 99.9 0 0 0-2.01 3.2c-2.48 4.2-3.8 6.19-4.7 7.13-.27.29-.5.67-.5.84 0 .17-.4.78-.9 1.34-.5.57-1.35 1.69-1.9 2.5-.55.8-1.4 1.84-1.9 2.3-.5.46-.9.97-.9 1.13 0 .62-8.01 8.96-14.01 14.58-4.36 4.08-11.58 9.66-14.76 11.4-.63.35-1.45.94-1.81 1.3-.38.38-.91.68-1.2.68-.29 0-.75.28-1.04.62-.28.35-1.07.89-1.75 1.2-.68.32-2.04 1.12-3.03 1.77a20.8 20.8 0 0 1-2.8 1.6c-.55.23-1.27.6-1.6.81-.33.23-1.35.75-2.26 1.17a6.5 6.5 0 0 0-1.92 1.2c-.15.23-.59.43-.98.43-.4 0-1.53.43-2.51.95a15.2 15.2 0 0 1-3.03 1.23c-.68.15-1.33.51-1.44.81-.12.32-1.15.66-2.44.82-1.36.17-2.37.53-2.58.9-.2.37-1.26.74-2.68.93-1.34.18-2.53.58-2.8.94-.25.34-1.05.62-1.8.63-1.8.01-4.42.63-4.72 1.12-.13.21-1.84.58-3.79.82s-3.8.64-4.1.88c-.29.25-2.38.61-4.64.8l-7.21.62c-5.9.5-3.32 1.04 3.98.82 6.22-.18 7.15-.3 7.61-.93.36-.49.94-.68 1.83-.6 1.59.13 6.7-.65 7.27-1.12.22-.2 1.58-.57 3.01-.85 1.43-.27 2.96-.72 3.4-1 .44-.27 1.75-.69 2.91-.93a11.8 11.8 0 0 0 3-1c.49-.3 1.52-.69 2.29-.84a9.9 9.9 0 0 0 2.65-1.04c.68-.42 1.6-.76 2.04-.76.44 0 1.26-.36 1.82-.8.56-.44 1.37-.8 1.8-.8.43 0 1.21-.33 1.74-.74a6.7 6.7 0 0 1 2.12-1.02 6.75 6.75 0 0 0 2.15-1.06 3.56 3.56 0 0 1 1.54-.78c.66 0 3.87-1.82 8.32-4.71l2.78-1.8c.41-.27 1.22-.86 1.8-1.3a53.42 53.42 0 0 1 4-2.8c2-1.24 6.44-4.7 6.44-5.02 0-.2.2-.37.45-.37.5 0 1.95-1.34 8.28-7.66 6.74-6.73 9.06-9.38 12.07-13.76a16.1 16.1 0 0 1 1.7-2.1c.39-.37.7-.87.7-1.12 0-.25.24-.66.54-.9.3-.25 1.52-1.94 2.73-3.76 3.01-4.53 3.6-5.48 4.42-7.1a37 37 0 0 1 1.06-2c.2-.33.56-1.05.8-1.6.25-.55.6-1.27.78-1.6.79-1.4 2.45-5.07 2.68-5.9.13-.5.4-.9.58-.9.18 0 .54-.89.8-1.97s.73-2.07 1.04-2.19c.32-.12.57-.61.57-1.1 0-.49.34-1.62.76-2.51a60.7 60.7 0 0 0 3.08-9.23c.33-1.32.86-2.97 1.18-3.66.32-.7.7-2.68.84-4.4.15-1.73.43-3.25.65-3.4.2-.13.53-1.03.72-2 .7-3.65.25-9.89-.57-7.76m5.33 4.12c-.02 2.95-.68 7.39-1.14 7.67-.23.14-.62 1.6-.88 3.24a18.04 18.04 0 0 1-.98 3.99c-.29.55-.8 2.08-1.12 3.4a50.17 50.17 0 0 1-2.7 8c-.4.88-.85 2.14-1.01 2.8a9.93 9.93 0 0 1-1.03 2.4c-.4.66-.73 1.58-.73 2.05 0 .46-.33 1.27-.74 1.8a6.7 6.7 0 0 0-1.02 2.12 6.75 6.75 0 0 1-1.06 2.15c-.43.54-.78 1.3-.78 1.69 0 .38-.26.9-.58 1.17a5.19 5.19 0 0 0-1.04 1.95 5.5 5.5 0 0 1-.92 1.87 9.2 9.2 0 0 0-1.26 1.97c-1.85 3.62-2.23 4.23-2.6 4.23-.22 0-.4.24-.4.54 0 .29-.46 1.14-1.02 1.9-3.26 4.4-4.98 6.83-4.98 7.09 0 .16-.31.59-.7.95a40.4 40.4 0 0 0-2.7 3.34c-3.75 5.03-18.8 19.8-23 22.58-.5.33-1.38.97-1.96 1.42a40.8 40.8 0 0 1-2.04 1.48c-.55.37-1.81 1.25-2.8 1.95-4.75 3.37-8.14 5.55-8.64 5.55-.3 0-.56.16-.56.35 0 .2-1.33 1.01-2.97 1.82a18 18 0 0 0-3.42 2.02 3.7 3.7 0 0 1-1.72.84c-.7.15-1.72.6-2.27.98-.56.4-1.7.83-2.52.97-.83.14-1.5.42-1.5.62s-.75.57-1.66.82c-.91.24-2.3.79-3.1 1.21-.78.42-1.7.77-2.04.77-.34 0-1.24.33-2 .74-.77.4-2.35.97-3.5 1.24-1.16.28-2.2.65-2.3.82-.11.18-1.46.55-3 .83-1.54.27-2.8.7-2.8.95 0 .27-1.55.63-3.86.9-2.12.26-3.97.63-4.1.82-.45.67-1.63.87-6.51 1.13-5.9.3-8.02.9-3.33.94 5.14.04 9.8-.42 9.8-.97 0-.32 1.21-.56 3.7-.72 2.36-.15 3.83-.43 4.1-.77.22-.3 1.8-.74 3.52-.98 1.85-.26 3.32-.69 3.6-1.04.28-.35 1.38-.68 2.58-.79 1.16-.1 2.42-.46 2.8-.8a5.8 5.8 0 0 1 2.3-.88 8.17 8.17 0 0 0 2.43-.81c.45-.3 1.58-.76 2.5-1.04a5.77 5.77 0 0 0 2.12-1.04c.25-.29.64-.53.87-.53.42 0 5.18-2.14 6.28-2.83.33-.2 1.05-.55 1.6-.77a10.4 10.4 0 0 0 1.6-.8c.33-.23 1.32-.78 2.2-1.22a51.74 51.74 0 0 0 4.9-2.68c2.65-1.84 4.35-2.89 4.67-2.9.2 0 .65-.28 1-.61.34-.34 1.98-1.59 3.63-2.78a85.28 85.28 0 0 0 3.59-2.69c.32-.28 2.3-1.96 4.4-3.72 7.53-6.3 10-8.77 16.4-16.4l3.79-4.49c.23-.27.73-.9 1.1-1.4.38-.5 1.12-1.45 1.65-2.11 1.38-1.72 5.07-7.28 5.07-7.64 0-.16.29-.61.64-1 .7-.77 1.74-2.57 2.78-4.76.36-.77.89-1.67 1.17-2a5.3 5.3 0 0 0 .82-1.6c.16-.55.43-1.09.59-1.2.38-.26 3.2-6.16 3.2-6.7 0-.22.26-.62.57-.88.32-.26.7-1.03.85-1.71.15-.68.7-2.05 1.23-3.03.52-1 .95-2.13.95-2.54 0-.4.36-1.41.8-2.24.44-.82.8-1.82.8-2.22 0-.4.34-1.48.75-2.4.41-.93.87-2.67 1.03-3.88.15-1.2.52-2.47.82-2.8.3-.34.67-2.02.82-3.8.19-2.19.47-3.36.9-3.7.8-.63 1.29-10.1.53-10.1-.27 0-.45.77-.46 1.9m-21.93 4.08a35.9 35.9 0 0 0-.46 3.63c0 .46-.26 1.1-.58 1.42-.31.32-.7 1.43-.85 2.47-.14 1.05-.6 2.64-1 3.55-.41.9-.86 2.4-1 3.3-.15.9-.4 1.65-.56 1.65-.43 0-1.21 1.91-1.21 2.96 0 .5-.34 1.31-.76 1.8a5.56 5.56 0 0 0-1 2.21 3.73 3.73 0 0 1-.85 1.84 5 5 0 0 0-1 2.04c-.23.85-.58 1.55-.77 1.55-.2 0-.58.67-.85 1.5a9.73 9.73 0 0 1-1.23 2.45c-.4.53-.74 1.18-.74 1.45 0 .28-.29.74-.64 1.03-.36.3-.8.9-1.01 1.35-.2.45-.82 1.45-1.37 2.22a92.52 92.52 0 0 0-2.49 3.65 72.82 72.82 0 0 1-4.82 6.55 117.19 117.19 0 0 1-22.18 21.5c-.49.4-2.42 1.7-4.29 2.9a61.75 61.75 0 0 0-4.33 3c-.52.44-1.17.8-1.44.8-.28 0-.83.36-1.23.8-.4.44-.93.8-1.18.8a5.4 5.4 0 0 0-1.8.98 8.02 8.02 0 0 1-2.44 1.22c-.61.14-1.2.48-1.31.77-.11.28-.85.62-1.64.75-.8.13-1.91.6-2.49 1.06-.58.45-1.36.82-1.74.82a3.5 3.5 0 0 0-1.65.74c-.52.4-1.75.87-2.74 1.02a5.9 5.9 0 0 0-2.45.88c-.36.32-1.58.74-2.71.92a6.86 6.86 0 0 0-2.78.98c-.4.36-1.26.66-1.9.67-1.73.01-4.25.67-4.57 1.19-.15.25-1.25.51-2.44.58-3.54.22-6.13.7-6.56 1.24-1.18 1.47-36 1.47-37.2 0-.44-.55-6.45-1.56-7.05-1.19-.2.13-1.12-.15-2.03-.62-.9-.48-2.56-.97-3.68-1.09a6.67 6.67 0 0 1-2.74-.83 7.15 7.15 0 0 0-2.75-.93 7.16 7.16 0 0 1-2.7-.9 6.47 6.47 0 0 0-2.57-.84c-1.06-.15-2.02-.52-2.13-.81-.12-.3-1.1-.76-2.18-1.02s-1.97-.63-1.97-.81c0-.2-.76-.57-1.7-.83a8.5 8.5 0 0 1-2.3-.98c-.33-.27-1.23-.79-2-1.15-2.56-1.21-5.86-3.25-11.38-7.02-.48-.33-1.49-1-2.25-1.48a37.06 37.06 0 0 1-2.26-1.6 65.4 65.4 0 0 0-1.8-1.4c-7.34-5.42-13.28-11.35-21.37-21.32-1.78-2.2-4.73-6.37-7.23-10.23a36.26 36.26 0 0 1-3.9-6.76 10.9 10.9 0 0 0-1.17-2 5.16 5.16 0 0 1-.82-1.81 5.03 5.03 0 0 0-.81-1.8 7.23 7.23 0 0 1-.98-2.27c-.24-.92-.63-1.73-.86-1.8-.23-.08-.6-.95-.81-1.93a7.2 7.2 0 0 0-.93-2.4 5.73 5.73 0 0 1-.8-2.2c-.16-.88-.6-2.23-1-3-.38-.77-.83-2.21-.99-3.2a8.55 8.55 0 0 0-.8-2.6c-.28-.44-.75-2.28-1.03-4.1-.28-1.81-.68-3.3-.9-3.3-.61 0-.22 7.16.41 7.55.29.18.7 1.56.91 3.07.21 1.5.63 3.02.93 3.36.3.34.66 1.47.81 2.52.16 1.04.54 2.15.86 2.47.32.32.7 1.18.83 1.9.13.73.57 1.96.96 2.73.4.77 1.28 2.66 1.97 4.2.7 1.54 1.44 3.07 1.64 3.4.22.33.67 1.23 1.02 2s.78 1.49.95 1.6c.17.11.61.83.98 1.6 1.8 3.79 7.2 12.04 9.28 14.18.74.76 1.34 1.56 1.34 1.78 0 .22.24.54.54.72.3.18 1.9 1.94 3.57 3.92 5.2 6.18 16.44 16.08 22.26 19.6.36.22.92.63 1.24.9 1.1.95 3.5 2.42 4.45 2.71.52.17 1.37.64 1.9 1.05.52.4 1.12.74 1.33.74.21 0 .84.36 1.4.8.56.44 1.33.8 1.71.8.38 0 1.12.33 1.65.74.52.41 1.63.96 2.45 1.23.82.27 1.5.64 1.5.81 0 .18.84.54 1.86.8 1.03.25 2.24.72 2.7 1.04.45.32 1.11.58 1.47.58.36 0 1.46.43 2.44.95 1 .53 2.6 1.1 3.56 1.25.97.17 2.4.64 3.16 1.05.85.46 2.21.75 3.48.75 1.36 0 2.2.2 2.41.56.35.61 3.78 1.36 6.44 1.4.94.02 2.29.35 3 .74 1.96 1.07 36.35 1.07 37.98 0 .67-.44 1.86-.7 3.19-.71 2.66-.01 5.41-.64 6.18-1.4.34-.34 1.36-.6 2.46-.6a12 12 0 0 0 3.47-.63c.88-.34 2.57-.88 3.76-1.21 1.18-.33 2.53-.84 3-1.14.46-.3 1.44-.66 2.17-.8.73-.16 1.41-.52 1.52-.8.11-.28.89-.63 1.73-.76 1.34-.21 4.55-1.56 6.42-2.7.33-.2 1.05-.55 1.6-.8.55-.24 1.27-.6 1.6-.8.33-.2 1.32-.73 2.2-1.17a80.48 80.48 0 0 0 9.88-5.94 144 144 0 0 0 11.9-9.54 73.4 73.4 0 0 0 9.35-9.3 266.1 266.1 0 0 1 3.46-4.08c.33-.38.92-1.1 1.3-1.6.98-1.32 3.42-4.41 4.02-5.12.28-.33 1.03-1.41 1.66-2.4.64-.99 1.49-2.29 1.9-2.88.4-.6.73-1.24.73-1.43 0-.18.45-.94 1-1.69s1-1.69 1-2.09c0-.4.26-.84.58-.96.32-.12.79-.88 1.04-1.69.26-.8.7-1.65.99-1.88.28-.22.72-1.17.97-2.1.25-.92.6-1.68.77-1.68.18 0 .55-.76.82-1.7.28-.94.83-2.24 1.22-2.9.4-.66.83-1.88.98-2.7.15-.83.41-1.5.59-1.5.35 0 1.24-2.71 1.24-3.81 0-.4.27-1.03.61-1.4.34-.38.79-1.73 1-3.01.2-1.29.64-2.9.97-3.59.9-1.9 1.3-7.79.54-7.79-.43 0-.73.78-1.06 2.78M46.82 235.9c-.28 1-.42 19.3-.44 55.3l-.02 53.8-1.28 1.85-2.34 3.4c-3.23 4.74-.61 7 6.41 5.53 4.2-.87 13.3-.9 15.6-.03 3.96 1.47 7.86-.24 6.22-2.74-.75-1.14-4.02-3.81-4.67-3.81-.72 0-4.37-3.33-5.34-4.86-1.52-2.4-1.48-13.6.06-15.24l1.01-1.1h32.85l3.21 2.3c18.65 13.34 26.17 17.52 35.06 19.49 10.66 2.35 27.27 2.51 25.04.25-.23-.23-2.3-.98-4.6-1.66a71.53 71.53 0 0 1-5.5-1.8 7.27 7.27 0 0 0-1.74-.58c-.84 0-9.12-3.8-12.55-5.75l-4-2.23a232.28 232.28 0 0 1-10.4-5.93c-.88-.57-2.23-1.41-3-1.88-3.43-2.1-9.96-6.5-11.6-7.83-.99-.8-2.1-1.62-2.45-1.82-1.68-.93-10.41-9.2-14.96-14.16-3.47-3.8-5.98-6.9-11.71-14.49a154 154 0 0 1-7.9-11.51c-2.9-4.52-10.18-19.23-10.18-20.6 0-.16-.27-.85-.6-1.54-.6-1.27-1.1-2.7-3.29-9.26-2.3-6.89-2.98-9.21-3.34-11.4-.56-3.41-2.78-4.48-3.55-1.7m303.27 1.16c-.4.78-1.63 5.05-2.62 9.14-.54 2.25-1.28 4.3-4.96 13.8a222.34 222.34 0 0 1-8.74 17.94c-.61 1.06-6.2 9.57-9.37 14.24-7.27 10.74-25.11 28.17-36 35.19a111.63 111.63 0 0 0-4 2.67 48.6 48.6 0 0 1-3.2 2.03 85.61 85.61 0 0 0-3.6 2.24c-.77.52-3.2 1.85-5.4 2.94-2.2 1.1-4.27 2.15-4.6 2.33-.66.38-3.96 1.9-6.8 3.13-4.5 1.95-11.8 4.52-15 5.3-6.86 1.65-5 3.2 3.78 3.16 10.37-.06 23.65-3.04 27.62-6.21a12.7 12.7 0 0 1 2-1.11c.77-.35 1.76-.86 2.2-1.13.44-.28 1.43-.88 2.2-1.34a219.6 219.6 0 0 0 15.8-11.08c5.01-3.91 10.63-7.5 11.78-7.52 6.46-.12 23.83.03 24.4.21 2.03.65 2.36 11.65.42 14.09-.97 1.22-6.33 5.66-8.45 7-2.45 1.56-.47 3.47 3.08 2.98 3.5-.48 14.52.52 17.57 1.6 5.78 2.02 9.04-1.05 5.2-4.9-1.94-1.93-1.81 1.83-1.91-54.84-.09-51.88-.16-54.27-1.4-51.86M205.8 257.2c-.15.24-2.73.4-6.4.4-6.44 0-8.5.53-3.94 1.02 2.64.28 11.2.05 11.57-.32.27-.27-.25-1.5-.65-1.5-.18 0-.44.18-.58.4m-19.75 15.16c-1.44.9 24.73 1.53 27.49.66 2.49-.79-.2-1.03-6.88-.61-5.04.31-8.8.32-13.1.01-7.16-.5-6.82-.5-7.51-.06m1.95 7.28c0 .72 2.38.9 12 .9 9.55 0 12-.18 12-.88 0-.16-5.4-.3-12-.31-6.6-.01-12 .12-12 .29m1.5 5.1c-3.33.87-.6 1.18 10.5 1.17 5.61 0 10.74-.14 11.4-.3l1.2-.3-1.2-.27c-1.22-.27-21-.55-21.9-.3M65.45 294.7c1.72 2.15 6.06 7.48 9.64 11.85 8.93 10.9 9 10.65-3.23 10.65-12.01 0-11.83.25-11.48-15.51.22-10.17.33-10.85 1.68-10.88.14 0 1.66 1.75 3.39 3.89m271.42-2.5c.42.17.52 2.09.48 9.44-.06 11.8.56 10.93-7.85 11-9.47.09-9.7-.12-5.83-5.08l5.13-6.55 4.8-6.17c2.23-2.9 2.34-3 3.27-2.64m-160.4 41.27c.17.88 3.04 1.26 9.62 1.28 6.04.01 5.65-.52-.81-1.1-3.01-.27-6.26-.58-7.22-.7-1.52-.18-1.71-.12-1.6.52m16.13 1.9c-.71.54.03.6 7.31.62 7.26 0 9.7-.3 7.4-.93-1.92-.52-13.94-.27-14.7.32m-18.79 3.4c-.48.78-.2.82 6.43 1.03 6.98.23 7.56-.36.74-.76a68.28 68.28 0 0 1-5.43-.48c-.93-.17-1.55-.1-1.74.21m12.99 2.07c0 .14.4.36.9.5 2.18.58 27.29.07 25.5-.52-.63-.21-26.4-.19-26.4.02"/>
</g>
</svg>